<svg version="1.2" xmlns="http://www.w3.org/2000/svg" viewBox="0 0 400 110" width="400" height="110">
	<title>image2vector (1)</title>
	<style>
		.s0 { fill: #3a4e49 } 
		.s1 { fill: #fbfbfb } 
	</style>
	<g id="svgg">
		<path id="path0" fill-rule="evenodd" class="s0" d="m125.3-0.1c0.5 0 1.8 0.3 2.9 0.5 1.2 0.2 2.5 0.5 3.1 0.7 3.3 0.9 3.8 1.1 4.2 1.3 0.3 0.2 0.8 0.4 1.3 0.5 0.4 0.1 0.9 0.3 1 0.5 0.2 0.1 0.8 0.4 1.3 0.7q1.6 0.7 2.7 1.6c0.3 0.2 0.7 0.5 1 0.6 0.3 0.1 0.6 0.3 0.6 0.4 0 0.1 0.3 0.3 0.6 0.6 1.3 0.7 4.5 4.2 5.7 6 0.3 0.5 0.7 1.1 0.9 1.4 0.2 0.2 0.5 0.7 0.7 1.1 0.1 0.4 0.4 0.9 0.5 1 0.1 0.2 0.3 0.6 0.5 1 0.1 0.4 0.3 0.9 0.5 1.3 0.2 0.3 0.4 0.9 0.6 1.5 0.1 0.5 0.3 1.2 0.5 1.6 0.1 0.3 0.4 1.3 0.5 2.3 0.1 0.9 0.3 2.3 0.5 3.1 0.5 2.6 0.1 8.7-0.6 10.1l-0.3 0.5h-6.5c-8.4 0-7.7 0.3-7.2-3.1 0.3-2.3 0.2-7.2-0.2-8.5-0.2-0.4-0.4-1.4-0.5-2.1-0.2-0.6-0.6-1.7-0.9-2.4-0.3-0.6-0.5-1.2-0.5-1.3 0-0.1-0.1-0.3-0.3-0.4-0.1-0.2-0.4-0.6-0.6-0.9-0.5-0.9-2.5-3.1-3.6-3.8-0.5-0.3-1.2-0.8-1.6-1.1-1.4-0.9-3.6-1.8-4.9-2.1-0.6-0.1-1.5-0.3-2.1-0.5-2.1-0.8-27.7-1-28.6-0.3-0.3 0.4-0.3 0.4-0.3 12.8 0 13.9 0 13.3-0.9 13.5-1.1 0.3-13.2 0.2-13.4-0.2-0.1-0.1-0.1-7.5-0.2-19.1v-18.8l0.4-0.2c0.6-0.2 42-0.1 43.2 0.2zm109.2-0.1c0.3 0.4 0.2 10.9-0.1 11.2-0.2 0.2-4.7 0.2-23.4 0.2-20.3 0.1-23.2 0.1-23.6 0.4l-0.4 0.2v12.9l-0.1 12.8-0.4 0.3c-0.6 0.5-13.3 0.6-13.5 0.1-0.3-0.6-0.4-37.7-0.1-38.1 0.4-0.4 61.3-0.4 61.6 0zm84.8 0c0.3 0.4 0.2 10.9-0.1 11.2-0.2 0.2-3.1 0.2-14.7 0.3-13.4 0-14.5 0-14.7 0.3-0.2 0.3-0.2 2.9-0.2 13 0 9.8-0.1 12.7-0.2 13l-0.3 0.5h-6.2c-3.4 0.1-6.4 0-6.6 0-1-0.2-1-0.3-1-13.8 0-6.8 0-12.5-0.1-12.6-0.3-0.4-1.1-0.4-14.9-0.4-7.7 0-14.2-0.1-14.3-0.1-0.5-0.4-0.6-1-0.6-6 0-5.1 0-5.1 0.4-5.4 0.6-0.4 73.2-0.4 73.5 0zm-263.3 51.2l0.7 0.7v3.2l-1 1c-1.3 1.1-1.3 1.2-0.1 2.6 1.5 1.8 1.5 1.7 1.2 2-0.7 0.8-1.3 0.4-3.4-2.2-0.9-1.1-1.4-1.6-1.9-1.7l-0.6-0.2v2q-0.1 3.2-1.3 2.2c-0.4-0.3-0.4-9.9 0-10.5 0.5-0.9 5.2-0.3 6.4 0.9zm21.8-1c2.8 0.7 4.3 3.2 3.8 6.7-0.2 1.2-1.3 3-1.8 3-0.1 0-0.5 0.3-0.9 0.6-2.2 1.4-5.7 0.5-7.4-2l-0.7-0.9v-2c0-3 1.5-4.9 4-5.4 1.6-0.3 1.6-0.3 3 0zm24.9 0q1.1 1.2-1.8 1.2c-2.4 0-2.6 0.2-2.7 1.6-0.1 1.5 0 1.6 2.2 1.7 1.9 0.2 2.3 0.4 1.7 1-0.4 0.4-0.6 0.5-1.7 0.5-1.9 0-2.2 0.3-2.3 2.7q-0.1 2.9-1.3 1.9c-0.4-0.3-0.4-9.9 0-10.4 0.4-0.6 5.4-0.7 5.9-0.2zm44.2 0q1.3 0.9-1.2 1.2c-1.7 0.2-1.6-0.1-1.6 4.8 0 4.7-0.1 4.9-1 4.8-0.3-0.1-0.4-0.3-0.4-4.7-0.1-5.2 0-4.9-1.9-4.9-1.3 0-1.7-0.3-1.2-1 0.3-0.6 6.6-0.7 7.3-0.2zm42.3 0c2.9 0.5 3.7 3.7 1.5 6-0.6 0.6-1 1.2-0.9 1.3 0.1 0.1 0.6 0.8 1.3 1.6 1 1.3 1.1 1.5 0.8 1.7-0.4 0.3-1.5 0.1-1.8-0.3-0.7-0.9-1.6-2.1-2-2.5-0.3-0.3-0.6-0.6-0.7-0.8-0.1-0.1-0.4-0.3-0.8-0.4l-0.7-0.1 0.1 1.3c0.2 2.3-0.3 3.6-1.2 2.8-0.4-0.2-0.4-9.9-0.1-10.5 0.2-0.4 2.6-0.5 4.5-0.1zm23.9 0.4c0.2 0.7-0.4 0.9-2.5 0.9-2.4 0-2.4 0-2.5 1.5-0.2 1.5-0.1 1.6 2 1.6 3.8 0 4 1.4 0.3 1.7-2.1 0.1-2.5 0.3-2.3 1.7 0.1 1.3 0.2 1.3 2.5 1.5 2.4 0.1 3.1 0.5 2.4 1.3-0.3 0.3-5.7 0.3-6.2 0-0.3-0.1-0.4-0.4-0.4-5 0-5.5 0-5.5 1.3-5.7 2.3-0.3 5.2-0.1 5.4 0.5zm43.8 0.2c0.1 0.3-0.7 0.6-1.5 0.6-0.4 0-1 0.1-1.4 0.2l-0.6 0.3v4.4c0 4.6 0 4.8-0.9 4.7l-0.4-0.1-0.1-4.6c-0.1-5.2 0-4.8-1.6-4.9-1.5-0.1-1.9-0.4-1.3-1.1 0.7-0.8 7.6-0.4 7.8 0.5zm14.8-0.9l2.2 0.1c2.3 0.1 2.7 0.3 3.4 1.1 1.4 1.7 1.2 3.8-0.5 5.2-0.8 0.8-1.2 1.3-0.8 1.3 0.4 0 2.7 3 2.5 3.2-0.8 0.8-3.5-1.3-5-4l-0.4-0.6 0.4-0.4c0.3-0.2 0.7-0.3 1.1-0.3 2.9 0 2.6-3.6-0.4-4-1.9-0.2-1.9-0.1-1.7 4 0 1.9-0.2 5.1-0.5 5.3-0.3 0.3-1.1-0.1-1.2-0.6-0.1-0.2-0.1-2.4-0.1-4.9l0.1-4.4zm50.7 1.2c2.3 1.8 2.9 4.7 1.6 7.1-0.6 0.9-1.5 1.9-1.8 1.9-0.1 0-0.5 0.2-0.8 0.4-0.8 0.6-5.7 0.7-6 0.1-0.3-0.6-0.2-10 0.2-10.4 0.6-0.7 5.6-0.1 6.8 0.9zm23.3-0.5c0.4 0.5-0.2 0.7-2.3 0.8-2.4 0.1-2.5 0.2-2.5 1.6 0 1.5 0.1 1.6 2.2 1.6 2.3 0 2.9 0.3 2.1 1.2-0.3 0.3-0.5 0.4-2 0.4-2 0.1-2.3 0.4-2.3 1.6 0 1.4 0.3 1.6 2.2 1.6 2.2 0 3.8 0.9 2.5 1.4-0.7 0.3-6.1 0.2-6.3-0.1-0.2-0.2-0.3-9.7-0.1-10.3 0.1-0.1 0.4-0.3 0.7-0.4 2.4-0.3 5.3 0 5.8 0.6zm21.4 0.4c0.6 0.7 0.7 0.9 0.9 2.5 0.2 1-0.2 1.8-1.3 2.9l-1.1 1 0.4 0.3c0.3 0.2 0.6 0.5 0.7 0.8 0.2 0.2 0.7 0.8 1.1 1.2 0.8 0.9 0.7 1-0.2 1.2-0.7 0.1-1.2-0.3-2.4-1.8-0.3-0.4-0.8-0.9-1.1-1.3-0.3-0.3-0.6-0.7-0.8-1-0.6-0.8-0.9-0.1-1 2.1l-0.1 1.8h-1.6l-0.1-4.8c0-5.1 0-5.7 0.7-5.9 2.2-0.4 5 0.1 5.9 1zm-333.2 0.1c2.3 2.5 0.6 6.1-3.1 6.3-1.6 0.1-1.8 0.3-1.8 1.8 0 1.7-1 2.5-1.5 1.2-0.2-0.3-0.2-8.4-0.1-9.5 0-0.2 0.3-0.4 0.5-0.5 1.3-0.7 5-0.3 6 0.7zm84-0.9c0.9 0.2 0.9 0.2 0.9 4.3 0 4.5 0.2 4.9 2.3 4.9 2.1 0 2.3-0.5 2.3-5 0-4 0.1-4.1 0.9-4.1 0.9 0 0.9 0.1 0.9 4.3 0 3.6 0 3.8-0.3 4.1-0.2 0.2-0.4 0.5-0.4 0.6 0 0.1-0.4 0.6-0.9 0.9-1.8 1.5-4.8 0.9-6.1-1.1l-0.5-0.8v-3.7c0-2.1 0.1-4 0.2-4.1 0.1-0.3 0.3-0.3 0.7-0.3zm44.5-0.1c0.4-0.1 0.6 0.9 0.6 4.5 0 4.2-0.1 4.1 1.2 4.5 2.3 0.8 4-0.9 3.6-3.5-0.1-0.3-0.1-1.6 0-2.8l0.1-2.3 0.5-0.2c0.9-0.5 1-0.3 1 4.2v4.1l-0.6 0.7c-1.6 2-4.2 2.4-6 0.9-1.4-1.1-1.5-1.5-1.6-5.7 0-3.9 0-4.1 0.8-4.3 0.2 0 0.4-0.1 0.4-0.1zm71 0.3c0.6 0.4 1.4 1.5 1.2 1.8-0.3 0.5-1.2 0.5-1.9-0.1-1-0.9-2.4-0.8-3.1 0.2l-0.6 0.7 0.3 0.6c0.4 0.8 0.6 0.9 2.1 1.1 2.5 0.4 3.8 1.4 3.7 3.1-0.1 1.9-1.4 3-3.7 3.1l-1.6 0.1-1.1-0.8c-0.9-0.6-1.1-0.8-1.2-1.3-0.2-1.2 0.8-1.4 2-0.2 1.2 1.2 4 0.6 4-0.9 0-0.9 0-0.9-2.3-1.5-2.1-0.5-2.7-0.8-3.3-1.5-1.1-1.5-0.3-3.9 1.5-4.5 0.7-0.2 3.5-0.2 4 0.1zm63.5-0.1c0.3 0.4 1.2 2.3 1.2 2.5 0 0.1 0.3 0.7 0.6 1.4 0.3 0.6 0.5 1.2 0.5 1.4 0 0.2 0.3 0.8 0.5 1.4 0.3 0.5 0.6 1.1 0.6 1.3 0 0.1 0.2 0.6 0.4 1.1 0.6 1.1 0.5 1.4-0.4 1.4-0.8 0-0.9-0.2-1.2-1.3-0.4-2-5-1.9-5.4 0.1-0.1 0.6-0.6 1.1-1.2 1.3-0.8 0.2-1-0.6-0.4-1.8 0.2-0.4 0.5-1.1 0.6-1.5 0.1-0.5 0.4-1.2 0.7-1.7 0.3-0.5 0.5-1 0.5-1.2 0-0.2 0.2-0.7 0.4-1.1 0.2-0.4 0.5-1.2 0.6-1.6q0.2-0.9 0.8-1.4c0.6-0.6 0.9-0.6 1.2-0.3zm-245.4 1.3l-0.6 0.3v2.1c0 1.1 0.1 2 0.2 1.8 0.1-0.1 0.7-0.2 1.5-0.3q2.4-0.2 2.4-1.9c0-0.8-0.6-1.9-1.1-2-1-0.2-1.9-0.2-2.4 0zm22.7 0.5c-0.4 0.3-0.7 0.5-0.8 0.5-0.3 0-1.3 2.5-1.3 3.1 0.1 1.8 2.4 3.9 4.2 3.8 4.1-0.4 5.4-5.2 2-7.4-1.4-0.8-2.8-0.8-4.1 0zm112.4-0.5c-0.5 0.3-0.9 3.5-0.5 3.9 0.2 0.2 2.9 0 3.2-0.2 1.1-0.8 1.1-3.2 0-3.7-0.7-0.2-2.2-0.2-2.7 0zm175.8 1.8q0 2.6 0.7 2.3c0.2-0.1 0.7-0.1 1.2-0.2 2.7-0.3 3-3.5 0.4-4-2.1-0.4-2.4-0.2-2.3 1.9zm-333.2-1.5c-0.3 0.5-0.2 3.5 0.1 3.7 0.3 0.3 2.4 0.1 3.1-0.3 1.2-0.6 1.1-2.5-0.2-3.3-0.9-0.6-2.7-0.7-3-0.1zm289.6-0.4c-1.9 0-1.9 0-1.9 3.7l-0.1 3.2 0.6 0.5c0.6 0.5 1.1 0.6 2.8 0.2 3.4-0.7 3.8-5.5 0.5-7.1-0.6-0.4-1.1-0.5-1.9-0.5zm-22.1 2l-0.3-0.4-0.4 0.8c-0.2 0.4-0.6 1.1-0.8 1.4-0.5 1-0.3 1.3 1.1 1.3 1.5 0 1.6-0.2 1.1-1.2-0.2-0.4-0.3-0.9-0.3-1.2 0-0.2-0.2-0.5-0.4-0.7zm-201.3 19.7c0.2 0 0.5 0.2 0.6 0.4 0.3 0.5 0.3 35.1 0 35.3-0.5 0.5-13.6 0.5-14.1 0-0.2-0.2-0.2-34.2 0-35.1 0.1-0.5 0.2-0.6 0.7-0.6 0.4-0.1 0.7-0.2 0.8-0.2 0.4-0.1 11.6 0.1 12 0.2zm91.2 0.1c0.5 0.5 0.6 35.5 0.1 35.7-0.5 0.3-13.6 0.3-13.8 0.1-0.2-0.2-0.2-35.5 0.1-35.8 0.1-0.1 0.3-0.2 0.5-0.3 1.4-0.3 12.8 0 13.1 0.3zm102.7-0.1c0.3 0.4 0.4 35.5 0.1 35.8-0.4 0.3-13.2 0.3-13.7 0-0.5-0.2-0.5-35.1 0-35.6 0.2-0.3 0.8-0.3 4.2-0.4 6.5-0.1 9.1 0 9.4 0.2z"/>
		<path id="path1" fill-rule="evenodd" class="s1" d="m0 49v89.1h200 200v-89.1-89h-200-200zm125.3-49.2c0.5 0.1 1.8 0.4 2.9 0.6 1.2 0.2 2.5 0.5 3.1 0.6 3.3 0.9 3.8 1.1 4.2 1.4 0.3 0.1 0.8 0.4 1.3 0.5 0.4 0.1 0.9 0.3 1 0.4 0.2 0.1 0.8 0.5 1.3 0.7q1.6 0.8 2.7 1.7c0.3 0.2 0.7 0.4 1 0.6 0.3 0.1 0.6 0.2 0.6 0.3 0 0.1 0.3 0.4 0.6 0.6 1.3 0.8 4.5 4.2 5.7 6 0.3 0.5 0.7 1.2 0.9 1.4 0.2 0.3 0.5 0.8 0.7 1.2 0.1 0.4 0.4 0.8 0.5 1 0.1 0.1 0.3 0.6 0.5 0.9 0.1 0.4 0.3 1 0.5 1.3 0.2 0.3 0.4 1 0.6 1.5 0.1 0.6 0.3 1.3 0.5 1.6 0.1 0.4 0.4 1.4 0.5 2.3 0.1 1 0.3 2.4 0.5 3.2 0.5 2.5 0.1 8.7-0.6 10l-0.3 0.5h-6.5c-8.4 0-7.7 0.3-7.2-3 0.3-2.3 0.2-7.3-0.2-8.5-0.2-0.5-0.4-1.4-0.5-2.1-0.2-0.7-0.6-1.8-0.9-2.4-0.3-0.6-0.5-1.2-0.5-1.3 0-0.2-0.1-0.4-0.3-0.5-0.1-0.1-0.4-0.5-0.6-0.9-0.5-0.9-2.5-3.1-3.6-3.7-0.5-0.4-1.2-0.8-1.6-1.1-1.4-0.9-3.6-1.9-4.9-2.1-0.6-0.1-1.5-0.4-2.1-0.6-2.1-0.7-27.7-1-28.6-0.2-0.3 0.3-0.3 0.3-0.3 12.8 0 13.9 0 13.2-0.9 13.5-1.1 0.3-13.2 0.1-13.4-0.2-0.1-0.2-0.1-7.6-0.2-19.1v-18.9l0.4-0.1c0.6-0.3 42-0.1 43.2 0.1zm109.2-0.1c0.3 0.4 0.2 10.9-0.1 11.2-0.2 0.2-4.7 0.3-23.4 0.3-20.3 0-23.2 0.1-23.6 0.3l-0.4 0.3v12.8l-0.1 12.9-0.4 0.3c-0.6 0.5-13.3 0.5-13.5 0-0.3-0.5-0.4-37.7-0.1-38 0.4-0.4 61.3-0.5 61.6-0.1zm84.8 0c0.3 0.4 0.2 10.9-0.1 11.2-0.2 0.2-3.1 0.3-14.7 0.3-13.4 0.1-14.5 0.1-14.7 0.4-0.2 0.2-0.2 2.8-0.2 12.9 0 9.8-0.1 12.8-0.2 13.1l-0.3 0.4-6.2 0.1c-3.4 0-6.4 0-6.6-0.1-1-0.2-1-0.3-1-13.7 0-6.8 0-12.5-0.1-12.6-0.3-0.4-1.1-0.4-14.9-0.5-7.7 0-14.2 0-14.3-0.1-0.5-0.3-0.6-1-0.6-6 0-5 0-5.1 0.4-5.3 0.6-0.4 73.2-0.5 73.5-0.1zm-265.1 50.3c0.8 0.2 1.2 0.4 1.8 0.9l0.7 0.8v1.6 1.6l-1 0.9c-1.3 1.2-1.3 1.3-0.1 2.7 1.5 1.8 1.5 1.7 1.2 2-0.7 0.8-1.3 0.3-3.4-2.3-0.9-1.1-1.4-1.5-1.9-1.7l-0.6-0.2v2q-0.1 3.3-1.3 2.3c-0.4-0.3-0.4-9.9 0-10.5 0.2-0.5 2.9-0.5 4.6-0.1zm23.6 0c2.8 0.6 4.3 3.2 3.8 6.6-0.2 1.2-1.3 3.1-1.8 3.1-0.1 0-0.5 0.2-0.9 0.5-2.2 1.5-5.7 0.6-7.4-1.9l-0.7-1v-2c0-3.4 1.9-5.4 5.5-5.6 0.2 0 0.9 0.1 1.5 0.3zm24.9 0q1.1 1.1-1.8 1.1c-2.4 0.1-2.6 0.2-2.7 1.7-0.1 1.4 0 1.5 2.2 1.7 1.9 0.1 2.3 0.3 1.7 1-0.4 0.4-0.6 0.4-1.7 0.4-1.9 0-2.2 0.4-2.3 2.7q-0.1 3-1.3 2c-0.4-0.4-0.4-9.9 0-10.5 0.4-0.5 5.4-0.6 5.9-0.1zm44.2 0q1.3 0.9-1.2 1.2c-1.7 0.1-1.6-0.1-1.6 4.8 0 4.6-0.1 4.9-1 4.7-0.3 0-0.4-0.2-0.4-4.6-0.1-5.3 0-5-1.9-5-1.3 0-1.7-0.3-1.2-1 0.3-0.5 6.6-0.6 7.3-0.1zm42.3-0.1c2.9 0.6 3.7 3.7 1.5 6-0.6 0.7-1 1.2-0.9 1.3 0.1 0.2 0.6 0.9 1.3 1.7 1 1.3 1.1 1.4 0.8 1.6-0.4 0.3-1.5 0.2-1.8-0.2-0.7-0.9-1.6-2.1-2-2.6-0.3-0.2-0.6-0.6-0.7-0.7-0.1-0.2-0.4-0.4-0.8-0.4l-0.7-0.1 0.1 1.3c0.2 2.2-0.3 3.5-1.2 2.8-0.4-0.3-0.4-9.9-0.1-10.5 0.2-0.5 2.6-0.5 4.5-0.2zm23.2 0c1.7 0.6 0.7 1.3-1.8 1.3-2.4 0-2.4 0-2.5 1.5-0.2 1.6-0.1 1.6 2 1.6 3.8 0 4 1.5 0.3 1.7-2.1 0.2-2.5 0.4-2.3 1.8 0.1 1.2 0.2 1.3 2.5 1.4 2.4 0.2 3.1 0.6 2.4 1.3-0.3 0.3-5.7 0.3-6.2 0.1-0.3-0.2-0.4-0.5-0.4-5.1 0-6.1-0.2-5.7 3.7-5.8 1 0 2 0.1 2.3 0.2zm43.9 0.1c1 0.6 0.6 1.1-0.9 1.1-0.4 0-1 0.2-1.4 0.3l-0.6 0.3v4.3c0 4.7 0 4.9-0.9 4.7h-0.4l-0.1-4.6c-0.1-5.2 0-4.8-1.6-5-1.5-0.1-1.9-0.4-1.3-1 0.4-0.5 6.2-0.6 7.2-0.1zm20.2 0.1c2.1 1.2 2.3 4.3 0.3 6-0.8 0.7-1.2 1.3-0.8 1.3 0.4 0 2.7 3 2.5 3.2-0.8 0.8-3.5-1.4-5-4.1l-0.4-0.6 0.4-0.3c0.3-0.2 0.7-0.4 1.1-0.4 2.9 0 2.6-3.6-0.4-3.9-1.9-0.2-1.9-0.1-1.7 3.9 0 2-0.2 5.2-0.5 5.4-0.3 0.3-1.1-0.1-1.2-0.6-0.1-0.3-0.1-2.5-0.1-4.9l0.1-4.5 0.4-0.4 0.5-0.5 2.2 0.1c1.2 0 2.3 0.2 2.6 0.3zm43.2-0.1c3.2 0.3 5.2 2.7 4.9 5.8-0.1 1.6-1.6 4.1-2.4 4.1-0.1 0-0.5 0.1-0.8 0.4-0.8 0.6-5.7 0.7-6 0.1-0.3-0.6-0.2-10 0.2-10.4 0.3-0.4 1.4-0.4 4.1 0zm25.1-0.1c1.9 0.5 1.2 1.2-1.4 1.3-2.4 0.1-2.5 0.2-2.5 1.6 0 1.5 0.1 1.5 2.2 1.5 2.3 0 2.8 0.4 2.1 1.3-0.3 0.3-0.6 0.4-2 0.4-2 0.1-2.3 0.4-2.3 1.6 0 1.3 0.3 1.6 2.2 1.6 2.1 0 3.8 0.9 2.5 1.4-0.7 0.3-6.1 0.2-6.3-0.1-0.2-0.2-0.3-9.8-0.1-10.3 0-0.2 0.4-0.3 0.7-0.4 1.2-0.1 4.3-0.1 4.9 0.1zm20.3 0c1.2 0.2 1.4 0.3 2 0.9 0.6 0.7 0.7 0.9 0.9 2.4 0.2 1.1-0.2 1.9-1.3 2.9l-1.1 1 0.4 0.4c0.2 0.2 0.6 0.5 0.7 0.8 0.2 0.2 0.6 0.8 1 1.2 0.8 0.9 0.8 1-0.1 1.2-0.7 0.1-1.2-0.3-2.4-1.8-0.3-0.4-0.8-0.9-1.1-1.3-0.3-0.3-0.7-0.7-0.8-1-0.6-0.8-1-0.1-1.1 2.1v1.8h-0.8-0.8l-0.1-4.8c0-5.1 0-5.7 0.7-5.9 0.8-0.1 2.7-0.1 3.9 0.1zm-332.7 0.2c1.2 0.2 2 1.1 2.3 2.6 0.6 2.5-1 4.3-3.9 4.5-1.6 0.1-1.8 0.3-1.8 1.8 0 1.7-1.1 2.5-1.6 1.2-0.1-0.3-0.1-8.4 0-9.5 0.1-0.7 2.9-1.1 5-0.6zm86.2 0.2c0.1 0.1 0.2 1.1 0.2 4 0 4.4 0.2 4.9 2.3 4.9 2.1 0 2.3-0.5 2.3-5 0-4 0.1-4.1 0.9-4.1 0.9 0 0.9 0.1 0.9 4.3 0 3.6 0 3.8-0.4 4.1-0.2 0.2-0.3 0.5-0.3 0.6 0 0.1-0.4 0.5-0.9 0.9-1.9 1.5-4.8 0.9-6.1-1.1l-0.5-0.8v-3.7c0-4.5 0.3-5.1 1.6-4.1zm44.1-0.1c0.2 0.2 0.2 1.2 0.3 4.2 0 4.2-0.1 4.1 1.2 4.5 2.3 0.8 4-0.9 3.6-3.5-0.1-0.3-0.1-1.6 0-2.8l0.1-2.3 0.5-0.2c0.9-0.5 1-0.3 1 4.2v4.1l-0.6 0.7c-1.6 2-4.2 2.4-6 0.9-1.4-1.1-1.5-1.5-1.6-5.7-0.1-3.9 0-4.1 0.7-4.3 0.3 0 0.5-0.1 0.5-0.1 0 0 0.2 0.1 0.3 0.3zm70.7 0c0.6 0.4 1.4 1.5 1.2 1.8-0.3 0.5-1.2 0.5-1.9-0.1-1-0.9-2.4-0.8-3.2 0.2l-0.5 0.7 0.3 0.6c0.4 0.8 0.6 0.9 2.1 1.1 2.5 0.4 3.8 1.4 3.7 3-0.1 2-1.4 3.1-3.8 3.2l-1.5 0.1-1.1-0.8c-0.9-0.6-1.1-0.8-1.2-1.3-0.2-1.3 0.8-1.4 2-0.2 1.2 1.2 4 0.5 4-0.9 0-0.9 0-0.9-2.4-1.5-3.6-0.9-4.8-2.8-3-5 0.9-1.1 4-1.6 5.3-0.9zm63.5-0.1c0.3 0.4 1.2 2.3 1.2 2.5 0 0.1 0.3 0.7 0.6 1.4 0.3 0.6 0.5 1.2 0.5 1.4 0 0.1 0.2 0.8 0.5 1.3 0.3 0.6 0.6 1.2 0.6 1.4 0 0.1 0.2 0.6 0.4 1.1 0.6 1.1 0.5 1.4-0.4 1.4-0.8 0-0.9-0.2-1.2-1.3-0.4-2-5-1.9-5.4 0.1-0.1 0.6-0.6 1.1-1.2 1.3-0.8 0.2-1-0.6-0.4-1.8 0.2-0.4 0.4-1.1 0.6-1.5 0.1-0.5 0.4-1.2 0.7-1.7 0.2-0.5 0.5-1 0.5-1.2 0-0.2 0.2-0.7 0.4-1.1 0.2-0.4 0.5-1.2 0.6-1.7 0.3-1.2 1.5-2.2 2-1.6zm-245.4 1.3l-0.6 0.3v2.1c0 1.1 0.1 2 0.2 1.8 0.1-0.1 0.7-0.2 1.4-0.3q2.5-0.2 2.5-1.9c0-0.8-0.6-1.9-1.1-2-1.1-0.2-1.9-0.2-2.4 0zm24.3-0.1c-0.5 0.1-1.2 0.3-1.6 0.6-0.4 0.3-0.8 0.5-0.8 0.5-0.1 0-0.4 0.5-0.7 1.2-2 4.6 4.2 8 6.9 3.8 1.8-2.8-0.6-6.5-3.8-6.1zm110.8 0.1c-0.5 0.3-0.9 3.5-0.5 3.9 0.2 0.2 2.8 0 3.1-0.2 1.2-0.8 1.2-3.2 0-3.7-0.6-0.2-2.1-0.2-2.6 0zm176.1 0c-0.8 0.5-0.4 4.4 0.4 4.1 0.2-0.1 0.7-0.2 1.2-0.2 1.9-0.2 2.8-2 1.7-3.3-0.8-0.8-2.6-1.1-3.3-0.6zm-333.5 0.3c-0.3 0.5-0.2 3.4 0.1 3.7 0.3 0.3 2.4 0.1 3.1-0.3 1.2-0.6 1.1-2.5-0.2-3.3-0.9-0.6-2.7-0.7-3-0.1zm288.1-0.1c-0.4 0.2-0.4 0.5-0.4 3.4l-0.1 3.2 0.6 0.5c1 0.8 3.5 0.4 4.6-0.8 1.1-1.2 1.2-3.9 0.1-5.1-1.1-1.3-3.8-2-4.8-1.2zm-21.3 2.1c-0.2 0.4-0.6 1-0.8 1.4-0.5 1-0.3 1.3 1.1 1.3 1.4 0 1.6-0.2 1.1-1.2-0.2-0.4-0.3-1-0.3-1.2 0-0.2-0.2-0.5-0.4-0.7l-0.3-0.4zm-200.6 19.3c0.2 0 0.5 0.2 0.6 0.4 0.3 0.5 0.3 35.1 0 35.3-0.5 0.5-13.6 0.5-14.1 0-0.2-0.1-0.2-34.2 0-35.1 0.1-0.4 0.2-0.5 0.7-0.6 0.4-0.1 0.7-0.2 0.8-0.2 0.4-0.1 11.6 0.1 12 0.2zm91.2 0.1c0.5 0.5 0.6 35.5 0.1 35.8-0.5 0.2-13.6 0.2-13.8 0-0.2-0.2-0.2-35.5 0-35.8 0.5-0.5 13.2-0.5 13.7 0zm102.7-0.1c0.3 0.4 0.4 35.6 0 35.8-0.3 0.3-13.1 0.3-13.6 0.1-0.5-0.3-0.5-35.2 0-35.7 0.4-0.5 13.1-0.6 13.6-0.2z"/>
	</g>
</svg>