<svg id="Capa_1" enable-background="new 0 0 512.004 512.004" height="512" viewBox="0 0 512.004 512.004" width="512" xmlns="http://www.w3.org/2000/svg"><g><g><g><g><g><path d="m383.957 277.989c-.79-.919-1.13-2.135-.955-3.334 1.805-12.426 1.806-24.852.005-37.279-.175-1.199.166-2.415.956-3.334l21.441-24.935c2.098-2.44 2.425-5.938.816-8.724l-26.949-46.661c-1.609-2.786-4.803-4.253-7.967-3.658l-32.344 6.083c-1.194.225-2.42-.091-3.373-.845-9.72-7.695-20.581-14.011-32.287-18.66-1.128-.448-2.014-1.351-2.415-2.495l-10.881-31.005c-1.065-3.036-3.933-5.068-7.152-5.068l-53.91-.007c-3.219-.001-6.087 2.031-7.153 5.066l-10.89 31.002c-.402 1.145-1.288 2.047-2.416 2.495-11.707 4.646-22.57 10.959-32.292 18.652-.953.754-2.179 1.069-3.373.844l-32.342-6.091c-3.163-.596-6.358.87-7.968 3.656l-26.961 46.654c-1.61 2.786-1.284 6.283.814 8.724l21.434 24.941c.79.919 1.13 2.135.955 3.334-1.805 12.426-1.806 24.852-.005 37.279.175 1.199-.166 2.415-.956 3.334l-21.439 24.933c-2.098 2.44-2.425 5.938-.816 8.724l26.949 46.661c1.609 2.786 4.803 4.253 7.967 3.658l32.344-6.083c1.194-.224 2.42.091 3.373.845 9.72 7.695 20.581 14.011 32.287 18.66 1.128.448 2.014 1.351 2.415 2.496l10.881 31.005c1.065 3.035 3.933 5.068 7.152 5.068l53.91.007c3.219.001 6.087-2.031 7.153-5.066l10.89-31.002c.402-1.145 1.288-2.047 2.416-2.495 11.707-4.646 22.57-10.959 32.292-18.651.953-.754 2.179-1.069 3.373-.844l32.342 6.091c3.163.596 6.358-.87 7.968-3.656l26.961-46.654c1.61-2.786 1.284-6.283-.814-8.724zm-128.08 58.903c-44.705 0-80.946-36.217-80.946-80.894s36.241-80.894 80.946-80.894 80.946 36.218 80.946 80.894-36.241 80.894-80.946 80.894z" fill="#6fd7a3"/></g><g fill="#c8effe"><path d="m181.848 464.307c-60.218-21.133-108.277-67.186-131.854-126.353-42.062-105.553 3.579-224.779 102.055-276.883l-3.087 6.428c-3.189 6.641-.388 14.607 6.257 17.795 6.823 2.981 12.759.896 17.807-6.253l16.023-33.362c4.262-12.43.384-21.308-11.635-26.636l-35.384-10.946c-7.04-2.175-14.516 1.761-16.696 8.797-2.18 7.035 1.761 14.505 8.802 16.684l8.099 2.505c-51.177 26.212-91.315 68.965-114.35 122.387-26.189 60.736-27.145 127.982-2.69 189.351 26.433 66.334 80.307 117.963 147.807 141.651 1.506.529 3.043.772 4.552.757 5.459-.053 10.549-3.476 12.463-8.921 2.443-6.948-1.215-14.561-8.169-17.001z"/><path d="m486.557 164.174c-26.432-66.333-80.306-117.963-147.806-141.651-6.955-2.445-14.572 1.214-17.015 8.164-2.442 6.949 1.216 14.562 8.17 17.001 60.218 21.133 108.277 67.187 131.854 126.354 42.062 105.553-3.579 224.778-102.055 276.883l3.087-6.428c3.189-6.641.388-14.607-6.257-17.795-6.644-3.185-14.618-.386-17.807 6.253l-16.023 33.362c-4.262 12.43-.384 21.308 11.635 26.636l35.383 10.945c6.807 1.983 12.372-.95 16.696-8.797 2.18-7.036-1.761-14.505-8.802-16.684l-8.099-2.505c51.177-26.212 91.315-68.965 114.35-122.387 26.189-60.736 27.144-127.982 2.689-189.351z"/></g></g></g><path d="m383.957 277.988c-.79-.919-1.13-2.135-.955-3.334 1.805-12.426 1.807-24.852.005-37.279-.175-1.199.166-2.415.956-3.334l21.441-24.935c2.098-2.44 2.425-5.938.816-8.724l-26.949-46.661c-1.609-2.786-4.803-4.253-7.967-3.658l-32.344 6.083c-1.194.224-2.42-.091-3.373-.845-9.72-7.695-20.581-14.011-32.287-18.66-1.128-.448-2.014-1.351-2.415-2.495l-10.881-31.005c-1.065-3.036-3.933-5.068-7.152-5.068l-53.91-.007c-2.401 0-4.606 1.132-6.014 2.967 71.211 16.155 124.375 79.832 124.375 155.932 0 75.533-52.376 138.824-122.788 155.56 1.253.889 2.775 1.398 4.386 1.398l53.91.007c3.219.001 6.087-2.031 7.153-5.066l10.89-31.002c.402-1.145 1.288-2.047 2.416-2.495 11.707-4.646 22.57-10.959 32.292-18.651.953-.754 2.179-1.069 3.373-.844l32.342 6.091c3.163.596 6.358-.87 7.968-3.656l26.961-46.654c1.61-2.786 1.284-6.283-.814-8.724z" fill="#3ec3a4"/></g><g><g><path d="m295.634 226.422c-3.078-2.771-7.821-2.521-10.592.556l-44.563 49.497-13.53-16.589c-2.618-3.209-7.342-3.689-10.552-1.071-3.21 2.617-3.69 7.342-1.072 10.552l15.374 18.85c4.744 5.817 13.96 6.035 18.976.464l46.514-51.665c2.772-3.08 2.524-7.822-.555-10.594z"/><path d="m369.888 369.331c6.281 1.187 12.651-1.739 15.85-7.272l6.495-11.239c2.073-3.587.845-8.174-2.741-10.246-3.585-2.074-8.174-.846-10.246 2.74l-6.581 11.277-32.338-6.09c-3.322-.63-6.754.222-9.419 2.331-9.248 7.317-19.478 13.227-30.403 17.562-3.157 1.252-5.609 3.797-6.728 6.981l-10.965 31.053-53.986-.058-10.881-31.004c-1.117-3.185-3.567-5.729-6.724-6.984-10.925-4.338-21.153-10.249-30.401-17.57-2.663-2.108-6.094-2.958-9.413-2.335l-32.43 6.045-26.941-46.743 21.44-24.934c2.2-2.558 3.182-5.95 2.693-9.302-1.689-11.654-1.688-23.473.004-35.121.49-3.357-.491-6.75-2.689-9.305l-21.443-25.023 27.047-46.691 32.344 6.092c3.316.621 6.746-.226 9.413-2.333 9.248-7.317 19.477-13.226 30.407-17.563 3.156-1.253 5.606-3.797 6.724-6.979l10.965-31.054 53.986.059 10.881 31.006c1.119 3.186 3.571 5.73 6.723 6.981 10.926 4.339 21.154 10.25 30.401 17.57 2.663 2.108 6.093 2.959 9.413 2.335l32.43-6.045 26.941 46.744-21.44 24.934c-2.2 2.558-3.182 5.95-2.693 9.302 1.689 11.653 1.688 23.472-.003 35.117-.491 3.355.489 6.747 2.688 9.309l21.443 25.022-5.509 9.533c-2.073 3.587-.845 8.174 2.741 10.246 3.585 2.075 8.173.846 10.246-2.74l5.509-9.533c3.2-5.536 2.55-12.515-1.619-17.365l-20.448-23.793c1.624-12.104 1.625-24.354.005-36.464l20.455-23.789c4.168-4.849 4.82-11.826 1.623-17.363l-26.948-46.661c-3.196-5.534-9.562-8.461-15.848-7.277l-30.858 5.803c-9.682-7.493-20.3-13.629-31.601-18.264l-10.379-29.575c-2.117-6.029-7.834-10.082-14.228-10.084l-53.911-.007c-6.394 0-12.112 4.052-14.229 10.081l-10.388 29.572c-11.303 4.631-21.922 10.765-31.605 18.255l-30.856-5.811c-6.283-1.188-12.653 1.739-15.85 7.272l-26.961 46.653c-3.2 5.536-2.549 12.515 1.619 17.365l20.448 23.794c-1.624 12.103-1.625 24.354-.005 36.464l-20.454 23.788c-4.169 4.849-4.822 11.826-1.624 17.364l26.948 46.66c3.196 5.534 9.566 8.457 15.848 7.278l30.857-5.804c9.684 7.495 20.302 13.632 31.6 18.264l10.38 29.576c2.117 6.031 7.835 10.083 14.228 10.083l53.908.007h.005c6.392 0 12.109-4.051 14.227-10.08l10.388-29.572c11.301-4.63 21.92-10.763 31.605-18.255z"/><path d="m255.877 167.603c-48.77 0-88.447 39.653-88.447 88.394s39.677 88.395 88.447 88.395 88.447-39.653 88.447-88.395c-.001-48.741-39.678-88.394-88.447-88.394zm0 161.788c-40.499 0-73.447-32.925-73.447-73.395s32.948-73.394 73.447-73.394 73.447 32.924 73.447 73.394-32.949 73.395-73.447 73.395z"/><path d="m184.33 457.229c-58.172-20.414-104.596-64.901-127.37-122.053-19.554-49.069-20.127-103.438-1.614-153.088 16.319-43.767 46.2-80.696 85.053-105.552 1.071 6.645 5.524 12.916 11.817 15.629 9.722 4.245 22.823-.003 27.569-9.88l16.023-33.361c6.855-14.29-1.051-32.357-16.18-37.049l-35.385-10.945c-10.979-3.389-22.675 2.774-26.073 13.744-2.413 7.788.448 17.244 6.801 22.376-34.698 20.584-64.066 49.15-85.529 83.339-2.202 3.508-1.144 8.137 2.365 10.34 3.508 2.2 8.137 1.144 10.339-2.365 22.828-36.364 55.163-65.966 93.508-85.606 5.868-3.006 5.095-11.893-1.203-13.841l-8.098-2.505c-3.302-1.369-4.587-3.802-3.855-7.3.953-3.076 4.237-4.801 7.315-3.852l34.943 10.808c8.006 3.666 10.084 8.421 7.332 16.778l-15.533 32.341c-3.757 5.057-6.304 4.112-8.189 3.295-2.988-1.849-3.87-4.429-2.644-7.738l3.087-6.428c3.066-6.383-4.01-13.188-10.269-9.876-49.492 26.187-87.58 69.659-107.249 122.408-19.816 53.146-19.2 111.346 1.734 163.881 24.38 61.182 74.073 108.803 136.339 130.654 3.248 1.491 4.44 3.971 3.576 7.438-.999 2.845-4.639 4.567-7.455 3.574-65.454-22.97-117.694-73.032-143.323-137.351-24.573-61.663-22.202-131.536 6.194-191.5 1.773-3.743.175-8.215-3.568-9.988-3.745-1.773-8.216-.176-9.989 3.568-30.177 63.71-32.681 137.956-6.572 203.473 27.235 68.348 82.743 121.545 152.288 145.951 10.603 3.724 22.832-2.094 26.577-12.754 3.772-10.729-2.033-22.801-12.762-26.565z"/><path d="m493.526 161.397c-27.235-68.348-82.743-121.545-152.289-145.951-10.728-3.771-22.807 2.026-26.577 12.754-3.772 10.73 2.034 22.8 12.762 26.565 58.172 20.414 104.596 64.901 127.37 122.053 19.554 49.069 20.127 103.438 1.614 153.088-16.319 43.767-46.2 80.696-85.053 105.552-1.027-6.386-5.779-12.739-11.577-15.519-10.361-4.97-22.837-.584-27.81 9.769l-16.023 33.362c-6.855 14.289 1.051 32.357 16.18 37.048l35.383 10.945c10.773 3.458 20.365-3.056 25.481-12.344 4.262-7.725.177-18.616-6.2-23.771 20.735-12.278 39.501-27.337 55.934-44.903 20.085-21.47 36.246-46.217 48.032-73.552 26.987-62.578 27.971-131.865 2.773-195.096zm-16.545 189.157c-22.406 51.964-60.748 93.004-110.882 118.682-5.868 3.006-5.095 11.893 1.203 13.841l8.098 2.505c3.061 1.249 4.399 3.469 4.014 6.662-3.329 5.621-5.84 4.964-7.536 4.471l-34.881-10.79c-8.007-3.665-10.086-8.42-7.332-16.776l15.823-32.946c1.394-2.904 4.896-4.133 7.803-2.737 3.065 1.839 3.978 4.434 2.739 7.785l-3.086 6.429c-3.065 6.382 4.011 13.189 10.269 9.875 49.492-26.187 87.581-69.658 107.249-122.407 19.816-53.146 19.2-111.346-1.734-163.881-24.38-61.182-74.073-108.803-136.338-130.654-3.248-1.492-4.441-3.971-3.578-7.438 1.497-3.251 3.983-4.442 7.456-3.573 65.454 22.97 117.694 73.032 143.323 137.351 23.713 59.501 22.786 124.707-2.61 183.601z"/></g></g></g></svg>