<svg id="Capa_1" enable-background="new 0 0 512 512" height="512" viewBox="0 0 512 512" width="512" xmlns="http://www.w3.org/2000/svg"><g><g><path d="m482.181 65.382v420.615c0 10.219-8.284 18.503-18.503 18.503h-415.356c-10.219 0-18.503-8.284-18.503-18.503v-420.615z" fill="#eaf9fa"/><path d="m415.044 65.382v420.615c0 10.219-8.284 18.503-18.503 18.503h67.137c10.219 0 18.503-8.284 18.503-18.503v-420.615z" fill="#d4f2f6"/><path d="m57.819 93.382h153.531v383.118h-153.531z" fill="#a6e7f0"/><path d="m463.681 7.5h-415.362c-10.219 0-18.503 8.284-18.503 18.503v39.377h452.369v-39.377c-.001-10.219-8.285-18.503-18.504-18.503z" fill="#8795de"/><path d="m463.681 7.5h-67.137c10.219 0 18.503 8.284 18.503 18.503v39.377h67.137v-39.377c0-10.219-8.284-18.503-18.503-18.503z" fill="#6c7fd8"/><circle cx="134.585" cy="170.507" fill="#cb97e7" r="33.963"/><path d="m134.585 136.544c-5.593 0-10.864 1.36-15.517 3.755 10.951 5.637 18.446 17.043 18.446 30.208s-7.495 24.571-18.446 30.208c4.652 2.395 9.924 3.755 15.517 3.755 18.757 0 33.963-15.206 33.963-33.963s-15.206-33.963-33.963-33.963z" fill="#bd80e1"/><g><path d="m289.014 307.396h-26.374c-3.667 0-6.64-2.973-6.64-6.64v-81.736c0-3.667 2.973-6.64 6.64-6.64h26.374c3.667 0 6.64 2.973 6.64 6.64v81.735c.001 3.668-2.972 6.641-6.64 6.641z" fill="#fd4755"/><path d="m361.722 307.396h-26.374c-3.667 0-6.64-2.973-6.64-6.64v-56.282c0-3.667 2.973-6.64 6.64-6.64h26.374c3.667 0 6.64 2.973 6.64 6.64v56.282c0 3.667-2.973 6.64-6.64 6.64z" fill="#ffc4c8"/><path d="m434.429 307.396h-26.374c-3.667 0-6.64-2.973-6.64-6.64v-116.492c0-3.667 2.973-6.64 6.64-6.64h26.374c3.667 0 6.64 2.973 6.64 6.64v116.492c.001 3.667-2.972 6.64-6.64 6.64z" fill="#a6e7f0"/><path d="m434.429 177.623h-19.386v129.772h19.386c3.667 0 6.64-2.973 6.64-6.64v-116.491c.001-3.668-2.972-6.641-6.64-6.641z" fill="#6bd9e7"/></g><path d="m415.916 443.011 10.903 4.619c3.195 1.353 6.681-1.18 6.381-4.636l-1.024-11.797 7.762-8.942c2.274-2.62.943-6.719-2.438-7.502l-11.536-2.672-6.106-10.146c-1.789-2.973-6.099-2.973-7.888 0l-6.106 10.146-11.536 2.672c-3.38.783-4.712 4.882-2.438 7.502l7.762 8.942-1.024 11.797c-.3 3.457 3.187 5.99 6.381 4.636z" fill="#fee97d"/><path d="m437.502 414.753-11.536-2.672-6.106-10.146c-1.066-1.772-3.026-2.479-4.816-2.139v43.584l.872-.37 10.903 4.619c3.195 1.353 6.681-1.18 6.381-4.636l-1.024-11.797 7.762-8.942c2.276-2.62.944-6.719-2.436-7.501z" fill="#fedf30"/></g><g><path d="m211.351 341c4.142 0 7.5-3.357 7.5-7.5v-240.118c0-4.143-3.358-7.5-7.5-7.5h-153.532c-4.142 0-7.5 3.357-7.5 7.5v383.118c0 4.143 3.358 7.5 7.5 7.5h153.531c4.142 0 7.5-3.357 7.5-7.5v-107.836c0-4.143-3.358-7.5-7.5-7.5s-7.5 3.357-7.5 7.5v100.336h-138.531v-368.118h138.531v232.618c.001 4.143 3.358 7.5 7.501 7.5z"/><path d="m489.685 26.003c0-14.338-11.665-26.003-26.004-26.003h-415.362c-14.339 0-26.004 11.665-26.004 26.003l.004 459.994c0 14.338 11.665 26.003 26.003 26.003h415.355c14.338 0 26.003-11.665 26.003-26.003v-336.169c0-4.143-3.358-7.5-7.5-7.5s-7.5 3.357-7.5 7.5v336.169c0 6.067-4.936 11.003-11.003 11.003h-415.355c-6.067 0-11.003-4.936-11.003-11.003v-413.115h437.361v41.772c0 4.143 3.358 7.5 7.5 7.5s7.5-3.357 7.5-7.5zm-452.37 0c0-6.067 4.936-11.003 11.004-11.003h415.362c6.067 0 11.003 4.936 11.003 11.003v31.878h-437.369z"/><path d="m103.551 28.94h-42.493c-4.142 0-7.5 3.357-7.5 7.5s3.358 7.5 7.5 7.5h42.493c4.142 0 7.5-3.357 7.5-7.5s-3.358-7.5-7.5-7.5z"/><path d="m256 358.608h38.3c4.142 0 7.5-3.357 7.5-7.5s-3.358-7.5-7.5-7.5h-38.3c-4.142 0-7.5 3.357-7.5 7.5s3.358 7.5 7.5 7.5z"/><path d="m348.007 375.906h-92.007c-4.142 0-7.5 3.357-7.5 7.5s3.358 7.5 7.5 7.5h92.007c4.142 0 7.5-3.357 7.5-7.5s-3.358-7.5-7.5-7.5z"/><path d="m348.007 408.204h-92.007c-4.142 0-7.5 3.357-7.5 7.5s3.358 7.5 7.5 7.5h92.007c4.142 0 7.5-3.357 7.5-7.5s-3.358-7.5-7.5-7.5z"/><path d="m348.007 440.501h-92.007c-4.142 0-7.5 3.357-7.5 7.5s3.358 7.5 7.5 7.5h92.007c4.142 0 7.5-3.357 7.5-7.5s-3.358-7.5-7.5-7.5z"/><path d="m134.585 211.97c22.863 0 41.463-18.601 41.463-41.463s-18.6-41.463-41.463-41.463-41.463 18.601-41.463 41.463 18.6 41.463 41.463 41.463zm0-67.926c14.592 0 26.463 11.871 26.463 26.463s-11.871 26.463-26.463 26.463-26.463-11.871-26.463-26.463 11.871-26.463 26.463-26.463z"/><path d="m175.38 241.787h-81.59c-4.142 0-7.5 3.357-7.5 7.5s3.358 7.5 7.5 7.5h81.59c4.142 0 7.5-3.357 7.5-7.5s-3.358-7.5-7.5-7.5z"/><path d="m175.38 302.953h-52.753c-4.142 0-7.5 3.357-7.5 7.5s3.358 7.5 7.5 7.5h52.753c4.142 0 7.5-3.357 7.5-7.5s-3.358-7.5-7.5-7.5z"/><path d="m175.38 343.608h-52.753c-4.142 0-7.5 3.357-7.5 7.5s3.358 7.5 7.5 7.5h52.753c4.142 0 7.5-3.357 7.5-7.5s-3.358-7.5-7.5-7.5z"/><path d="m175.38 384.264h-52.753c-4.142 0-7.5 3.357-7.5 7.5s3.358 7.5 7.5 7.5h52.753c4.142 0 7.5-3.357 7.5-7.5s-3.358-7.5-7.5-7.5z"/><path d="m175.38 424.919h-52.753c-4.142 0-7.5 3.357-7.5 7.5s3.358 7.5 7.5 7.5h52.753c4.142 0 7.5-3.357 7.5-7.5s-3.358-7.5-7.5-7.5z"/><path d="m262.641 314.896h26.374c7.797 0 14.141-6.344 14.141-14.141v-81.734c0-7.797-6.343-14.141-14.141-14.141h-26.374c-7.797 0-14.141 6.344-14.141 14.141v81.734c0 7.797 6.343 14.141 14.141 14.141zm.859-95.016h24.655v80.016h-24.655z"/><path d="m375.862 300.755v-56.281c0-7.797-6.343-14.141-14.141-14.141h-26.374c-7.797 0-14.141 6.344-14.141 14.141v56.281c0 7.797 6.343 14.141 14.141 14.141h26.374c7.798 0 14.141-6.344 14.141-14.141zm-15-.859h-24.655v-54.562h24.655z"/><path d="m448.57 184.264c0-7.797-6.343-14.141-14.141-14.141h-26.374c-7.797 0-14.14 6.344-14.14 14.141v116.491c0 7.797 6.343 14.141 14.14 14.141h26.374c7.797 0 14.141-6.344 14.141-14.141zm-15 115.632h-24.655v-114.773h24.655z"/><path d="m421.242 139.754c4.142 0 7.5-3.357 7.5-7.5s-3.358-7.5-7.5-7.5h-41.971c-2.879 0-5.504 1.648-6.755 4.241l-28.134 58.318-65.572-28.419c-3.801-1.647-8.218.099-9.864 3.899-1.647 3.801.099 8.217 3.899 9.864l72.18 31.282c2.576 1.035 7.368.76 9.737-3.623l29.218-60.563h37.262z"/><path d="m447.973 415.496c-1.324-4.075-4.607-7.084-8.779-8.05l-8.44-1.955-4.468-7.424c-2.209-3.671-6.085-5.862-10.37-5.862s-8.161 2.191-10.371 5.862l-4.467 7.424-8.439 1.955c-4.174.966-7.457 3.976-8.781 8.05-1.324 4.075-.438 8.439 2.371 11.676l5.68 6.542-.75 8.632c-.37 4.269 1.479 8.319 4.944 10.838 2.116 1.537 4.588 2.324 7.091 2.324 1.597 0 3.207-.321 4.744-.972l7.978-3.38 7.978 3.38c3.945 1.67 8.37 1.165 11.835-1.353 3.466-2.519 5.314-6.569 4.944-10.838l-.749-8.632 5.679-6.543c2.809-3.234 3.695-7.599 2.37-11.674zm-21.46 10.785c-1.331 1.533-1.983 3.541-1.808 5.564l.607 7.001-6.471-2.742c-1.363.136.548-1.278-5.852 0l-6.471 2.742.607-7.001c.176-2.023-.477-4.031-1.808-5.565l-4.607-5.307 6.847-1.586c1.979-.458 3.687-1.699 4.734-3.439l3.624-6.021 3.624 6.021c1.047 1.74 2.755 2.981 4.734 3.439l6.847 1.586z"/><circle cx="448.92" cy="36.443" r="7.5"/><circle cx="93.79" cy="310.454" r="7.5"/><circle cx="93.79" cy="351.108" r="7.5"/><circle cx="93.79" cy="391.763" r="7.5"/><circle cx="93.79" cy="432.418" r="7.5"/></g></g></svg>