<svg id="Capa_1" enable-background="new 0 0 512.719 512.719" height="512" viewBox="0 0 512.719 512.719" width="512" xmlns="http://www.w3.org/2000/svg"><g><g><g><path d="m449.184 254.098c0-106.422-86.272-191.323-192.694-191.323s-192.695 86.272-192.695 192.694h11.628c3.45 0 5.428 3.928 3.375 6.7l-31.333 42.29c-1.663 2.244-5.012 2.27-6.709.053l-32.378-42.29c-2.116-2.763-.145-6.753 3.335-6.753h7.427c0-130.101 105.467-236.939 235.568-236.939s235.568 105.467 235.568 235.568z" fill="#a4ed62"/></g><g><path d="m490.278 254.099h-24.09c-1.75-119.74-84.98-212.81-190.81-234.68 120.42 10.47 214.9 111.55 214.9 234.68z" fill="#7be700"/></g><g><path d="m501.008 257.249h-7.43c0 130.1-105.47 236.94-235.57 236.94-122.18 0-222.63-93.01-234.41-212.09l17.16 22.41c1.7 2.22 5.04 2.2 6.71-.05l17.36-23.43c11.1 95.68 92.57 168.91 191.4 168.91 106.42 0 192.69-86.27 192.69-192.69h-11.62c-3.45 0-5.43-3.93-3.38-6.7l13.97-18.86 17.36-23.43c1.67-2.25 5.01-2.27 6.71-.05l17.16 22.41 15.22 19.88c2.12 2.76.15 6.75-3.33 6.75z" fill="#37cba6"/></g><g><path d="m501.008 257.249h-7.43c0 130.1-105.47 236.94-235.57 236.94-16.48 0-32.57-1.69-48.09-4.91 6.88.6 13.84.91 20.87.91 130.1 0 235.57-106.84 235.57-236.94h7.43c3.48 0 5.45-3.99 3.33-6.75l-15.22-19.88-5.21-6.81 8.56-11.55c1.67-2.25 5.01-2.27 6.71-.05l17.16 22.41 15.22 19.88c2.12 2.76.15 6.75-3.33 6.75z" fill="#00bf91"/></g><path d="m312.423 108.12h-78.74c-2.587 0-4.883 1.657-5.699 4.112l-44.329 133.443c-1.291 3.887 1.603 7.898 5.699 7.898h43.342l-28.98 144.253c-.806 6.404 7.678 9.396 11.068 3.903l113.682-169.367c2.469-4.001-.409-9.158-5.11-9.158h-41.388l36.145-107.16c1.313-3.892-1.582-7.924-5.69-7.924z" fill="#ffd500"/><path d="m328.468 232.366-113.681 169.358c-3.388 5.499-11.874 2.5-11.073-3.897l12.876-64.084 67.987-101.377c2.468-4.005-.411-9.157-5.109-9.157h-25.934c-7.592 0-12.943-7.452-10.516-14.646l31.211-92.521c1.31-3.886-1.591-7.923-5.693-7.923h43.891c4.102 0 7.003 4.037 5.683 7.923l-36.141 107.167h41.391c4.697 0 7.576 5.152 5.108 9.157z" fill="#ffc700"/></g><g><path d="m510.293 245.939-13.946-18.214c-6.367-58.975-34.093-113.455-78.205-153.548-44.802-40.721-102.844-63.147-163.435-63.147-131.533 0-239 105.611-242.955 236.939h-.04c-4.485 0-8.505 2.498-10.491 6.52-1.986 4.021-1.526 8.731 1.201 12.293l13.953 18.224c6.358 58.87 33.985 113.254 77.977 153.337 44.834 40.849 102.955 63.346 163.656 63.346 39.296 0 78.364-9.718 112.979-28.102 33.435-17.757 62.77-43.549 84.835-74.587 2.4-3.376 1.609-8.059-1.767-10.458-3.377-2.399-8.059-1.609-10.458 1.767-20.72 29.146-48.261 53.362-79.645 70.03-32.457 17.238-69.092 26.35-105.944 26.35-42.218 0-84.171-11.915-119.887-34.075-33.758-20.946-61.913-50.648-80.79-85.517-8.121-15.001-14.452-30.665-19.032-47.097-.901-3.231-1.735-6.482-2.486-9.751 1.886 2.323 5.68 3.467 8.562 3.404 3.571-.078 6.988-1.855 9.119-4.731.005-.006 6.788-9.16 6.788-9.16 19.106 91.053 100.349 157.676 195.947 157.676 110.385 0 200.19-89.805 200.19-200.19 0-4.143-3.358-7.5-7.5-7.5h-5.073l24.821-33.504 25.652 33.504h-.74c-4.142 0-7.5 3.357-7.5 7.5 0 36.362-8.293 71.194-24.65 103.53-1.87 3.696-.389 8.209 3.307 10.078 3.695 1.869 8.208.389 10.078-3.307 16.301-32.226 25.086-66.772 26.155-102.802h.041c4.488 0 8.509-2.501 10.493-6.525 1.982-4.024 1.516-8.734-1.21-12.283zm-254.065 196.5c-93.148 0-171.544-68.31-183.578-159.372l12.174-16.432c2.646-3.572 3.048-8.258 1.048-12.228-2-3.971-6.004-6.437-10.449-6.437h-3.979c3.949-98.653 85.439-177.694 185.044-177.694 93.137 0 171.534 68.309 183.581 159.371l-12.18 16.441c-2.643 3.571-3.042 8.255-1.042 12.225 2.001 3.97 6.005 6.437 10.45 6.437h3.97c-3.947 98.65-85.436 177.689-185.039 177.689zm212.397-243.381h-.092c-3.704.028-7.096 1.753-9.311 4.736l-6.79 9.166c-19.111-91.06-100.349-157.684-195.943-157.684-110.388 0-200.194 89.807-200.194 200.194 0 4.143 3.358 7.5 7.5 7.5h5.076l-24.821 33.501-14.497-18.932c-.007-.009-.016-.016-.023-.025l-11.135-14.544h.745c4.142 0 7.5-3.357 7.5-7.5 0-126.514 102.311-229.439 228.068-229.439 56.851 0 111.311 21.041 153.346 59.246 34.604 31.451 58.454 72.333 68.842 117.219-2.184-2.2-5.118-3.438-8.271-3.438z"/><path d="m323.356 215.704h-30.942l32.806-97.263c1.387-4.11.704-8.669-1.826-12.193-2.53-3.523-6.631-5.628-10.97-5.628h-78.74c-5.828 0-10.978 3.716-12.816 9.248l-14.301 43.05c-1.306 3.931.822 8.176 4.753 9.481 3.931 1.307 8.176-.822 9.482-4.753l13.961-42.026h75.579l-35.479 105.187c-.772 2.289-.395 4.81 1.014 6.771 1.409 1.963 3.677 3.126 6.092 3.126h38.578l-107.902 160.754 27.405-136.408c.443-2.204-.126-4.491-1.551-6.229-1.425-1.739-3.554-2.748-5.802-2.748h-41.27l18.445-55.526c1.306-3.931-.822-8.176-4.753-9.481-3.932-1.307-8.176.822-9.482 4.753l-19.098 57.492c-1.364 4.105-.667 8.651 1.864 12.159 2.531 3.509 6.625 5.604 10.952 5.604h34.185s-27.16 135.19-27.177 135.275c-.876 4.361.734 8.819 3.932 11.853 6.201 5.885 16.056 4.651 20.782-2.388.001-.001 113.617-169.271 113.617-169.271.054-.079.105-.16.156-.241 2.568-4.162 2.683-9.401.3-13.673-2.384-4.271-6.903-6.925-11.794-6.925z"/></g></g></svg>