<svg id="Capa_1" enable-background="new 0 0 512 512" height="512" viewBox="0 0 512 512" width="512" xmlns="http://www.w3.org/2000/svg"><g><g><path d="m115.51 345.829 111.098-54.165 46.315 25.982 46.316-79.138 46.315 41.395 46.316-65.835 46.315 27.082 46.315-74.862v283.028h-398.001z" fill="#6ce79a"/><g><path d="m484.013 199.403v249.913h20.487v-283.028z" fill="#00d8a2"/></g><path d="m35.926 448.273 10.713 6.254 20.181 7.474 30.197 3.588 47.388-11.959 22.423-29.15 17.191-36.625s-2.541-21.975-2.541-22.722-8.521-31.692-8.521-31.692l-18.587-22.972-12.451-10.065-5.176-4.13-4.578-2.155c-9.814-3.509-20.385-5.426-31.405-5.426-51.506 0-93.26 41.754-93.26 93.26 0 24.26 9.266 46.355 24.448 62.944z" fill="#ffea76"/><path d="m132.166 294.119c22.053 16.537 36.322 42.89 36.322 72.576 0 50.069-40.589 90.659-90.659 90.659-16.742 0-32.421-4.544-45.88-12.457 17.051 18.631 41.566 30.317 68.813 30.317 51.506 0 93.26-41.754 93.26-93.26-.001-40.487-25.802-74.942-61.856-87.835z" fill="#ffe54c"/><path d="m245.255 240.249h-33.937c-4.687 0-8.487-3.8-8.487-8.487v-67.663c0-4.687 3.8-8.487 8.487-8.487h33.937c4.687 0 8.487 3.8 8.487 8.487v67.663c-.001 4.687-3.8 8.487-8.487 8.487z" fill="#6ce79a"/><path d="m247.914 155.611h-20.296c4.687 0 8.487 3.8 8.487 8.487v67.663c0 4.687-3.8 8.487-8.487 8.487h20.296c4.687 0 8.487-3.8 8.487-8.487v-67.663c0-4.687-3.8-8.487-8.487-8.487z" fill="#00d8a2"/><path d="m327.852 168.173h-33.937c-4.687 0-8.487-3.8-8.487-8.487v-41.074c0-4.687 3.8-8.487 8.487-8.487h33.937c4.687 0 8.487 3.8 8.487 8.487v41.074c0 4.687-3.8 8.487-8.487 8.487z" fill="#6ce79a"/><path d="m330.511 110.126h-20.296c4.687 0 8.487 3.8 8.487 8.487v41.073c0 4.687-3.8 8.487-8.487 8.487h20.296c4.687 0 8.487-3.8 8.487-8.487v-41.073c0-4.687-3.8-8.487-8.487-8.487z" fill="#00d8a2"/><path d="m410.45 113.824h-33.937c-4.687 0-8.487-3.8-8.487-8.487v-41.073c0-4.687 3.8-8.487 8.487-8.487h33.937c4.687 0 8.487 3.8 8.487 8.487v41.074c0 4.687-3.8 8.486-8.487 8.486z" fill="#6ce79a"/><path d="m413.109 55.777h-20.296c4.687 0 8.487 3.8 8.487 8.487v41.073c0 4.687-3.8 8.487-8.487 8.487h20.296c4.687 0 8.487-3.8 8.487-8.487v-41.073c0-4.687-3.8-8.487-8.487-8.487z" fill="#00d8a2"/></g><g><path d="m504.5 338.412c4.143 0 7.5-3.357 7.5-7.5v-164.624c0-3.353-2.225-6.297-5.449-7.214-3.222-.918-6.665.417-8.429 3.268l-42.467 68.643-40-23.391c-3.365-1.966-7.677-1.028-9.92 2.159l-41.467 58.942-40.032-35.778c-1.679-1.501-3.939-2.161-6.163-1.817-2.223.35-4.171 1.679-5.308 3.621l-42.595 72.782-39.894-22.379c-2.145-1.203-4.745-1.279-6.956-.2l-51.874 25.291c-18.201-17.937-43.174-29.021-70.686-29.021-55.559-.001-100.76 45.199-100.76 100.759 0 14.878 3.176 29.217 9.44 42.617 1.753 3.753 6.219 5.372 9.97 3.618 3.753-1.754 5.373-6.218 3.618-9.97-5.327-11.397-8.028-23.598-8.028-36.265 0-47.288 38.472-85.76 85.761-85.76 47.288 0 85.76 38.472 85.76 85.76 0 47.289-38.472 85.761-85.76 85.761-23.708 0-46.583-9.959-62.76-27.322-2.822-3.03-7.568-3.2-10.6-.375-3.03 2.823-3.199 7.569-.375 10.6 19.003 20.398 45.878 32.098 73.734 32.098 25.878 0 49.508-9.806 67.371-25.897h336.369c4.143 0 7.5-3.357 7.5-7.5v-89.404c0-4.143-3.357-7.5-7.5-7.5s-7.5 3.357-7.5 7.5v81.904h-31.315v-198.535l31.315-50.617v138.246c0 4.142 3.357 7.5 7.5 7.5zm-270.392-33.94 31.315 17.566v119.778h-31.315zm46.316 15.207 31.315-53.508v175.645h-31.315zm46.315-64.408 31.314 27.987v158.557h-31.314zm46.315 27.005 31.315-44.512v204.052h-31.315zm-191.409 39.654 37.464-18.265v138.151h-37.345c12.41-16.749 19.757-37.464 19.757-59.863 0-22.471-7.394-43.247-19.876-60.023zm237.724 119.886v-214.674l31.315 18.312v196.362z"/><path d="m81.906 411.422c4.142 2.71 7.408 4.031 11.009 4.638v.925c0 4.143 3.357 7.5 7.5 7.5s7.5-3.357 7.5-7.5v-1.727c8.273-2.897 13.556-10.327 14.788-17.66 1.724-10.248-3.825-19.503-13.805-23.03-4.938-1.746-10.382-3.841-13.316-6.144-.316-.248-.624-1.288-.378-2.595.126-.669.707-2.903 2.88-3.558 6.046-1.825 11.6 1.054 11.846 1.184 3.583 2.014 8.127.769 10.177-2.805 2.062-3.592.822-8.176-2.77-10.238-.638-.366-4.21-2.315-9.422-3.254v-.238c0-4.143-3.357-7.5-7.5-7.5s-7.5 3.357-7.5 7.5v1.265c-6.402 2.266-11.135 7.886-12.451 14.866-1.274 6.759.972 13.341 5.86 17.176 4.629 3.631 11.182 6.223 17.575 8.483 3.969 1.403 4.372 4.255 4.012 6.401-.516 3.067-3.097 6.382-7.546 6.411-5.131.042-6.458-.175-10.248-2.653-3.464-2.267-8.113-1.296-10.382 2.171-2.267 3.466-1.296 8.115 2.171 10.382z"/><path d="m100.761 451.858c38.545 0 69.904-31.359 69.904-69.905 0-38.545-31.359-69.904-69.904-69.904-38.546 0-69.905 31.359-69.905 69.904-.001 38.546 31.359 69.905 69.905 69.905zm0-124.81c30.274 0 54.904 24.63 54.904 54.904s-24.63 54.905-54.904 54.905-54.905-24.631-54.905-54.905 24.63-54.904 54.905-54.904z"/><path d="m293.915 175.673h10.798v5.629c0 4.143 3.357 7.5 7.5 7.5s7.5-3.357 7.5-7.5v-5.629h10.799c8.814 0 15.986-7.172 15.986-15.987v-41.073c0-8.815-7.172-15.987-15.986-15.987h-10.799v-22.601c0-4.143-3.357-7.5-7.5-7.5s-7.5 3.357-7.5 7.5v22.601h-10.798c-8.815 0-15.987 7.172-15.987 15.987v41.073c0 8.815 7.172 15.987 15.987 15.987zm-.987-57.06c0-.544.443-.987.987-.987h36.597c.544 0 .986.443.986.987v41.073c0 .544-.442.987-.986.987h-36.597c-.544 0-.987-.443-.987-.987z"/><path d="m376.513 121.325h10.798v5.629c0 4.143 3.357 7.5 7.5 7.5s7.5-3.357 7.5-7.5v-5.629h10.799c8.814 0 15.986-7.172 15.986-15.987v-41.074c0-8.815-7.172-15.987-15.986-15.987h-10.799v-11.49c0-4.143-3.357-7.5-7.5-7.5s-7.5 3.357-7.5 7.5v11.49h-10.798c-8.815 0-15.987 7.172-15.987 15.987v41.073c-.001 8.816 7.171 15.988 15.987 15.988zm-.988-57.061c0-.544.443-.987.987-.987h36.597c.544 0 .986.443.986.987v41.073c0 .544-.442.987-.986.987h-36.597c-.544 0-.987-.443-.987-.987z"/><path d="m211.317 247.749h10.798v5.629c0 4.143 3.357 7.5 7.5 7.5s7.5-3.357 7.5-7.5v-5.629h10.798c8.815 0 15.987-7.172 15.987-15.987v-22.552c0-4.143-3.357-7.5-7.5-7.5s-7.5 3.357-7.5 7.5v22.551c0 .544-.443.987-.987.987h-36.596c-.544 0-.987-.443-.987-.987v-67.663c0-.544.443-.986.987-.986h36.596c.544 0 .987.442.987.986v16.112c0 4.143 3.357 7.5 7.5 7.5s7.5-3.357 7.5-7.5v-16.112c0-8.814-7.172-15.986-15.987-15.986h-10.798v-22.602c0-4.143-3.357-7.5-7.5-7.5s-7.5 3.357-7.5 7.5v22.602h-10.798c-8.815 0-15.987 7.172-15.987 15.986v67.663c0 8.816 7.172 15.988 15.987 15.988z"/></g></g></svg>