<svg id="Capa_1" enable-background="new 0 0 512.017 512.017" height="512" viewBox="0 0 512.017 512.017" width="512" xmlns="http://www.w3.org/2000/svg"><g><g><path d="m64.039 410.225h-38.29c-5.288 0-9.575-4.287-9.575-9.575v-66.341c0-5.288 4.287-9.575 9.575-9.575h38.29c5.288 0 9.575 4.287 9.575 9.575v66.341c0 5.288-4.287 9.575-9.575 9.575z" fill="#ff6470"/><path d="m67.039 324.733h-22.899c5.288 0 9.575 4.287 9.575 9.575v66.341c0 5.288-4.287 9.575-9.575 9.575h22.899c5.288 0 9.575-4.287 9.575-9.575v-66.341c0-5.288-4.287-9.575-9.575-9.575z" fill="#ff4555"/><path d="m483.268 410.225h-38.29c-5.288 0-9.575-4.287-9.575-9.575v-96.341c0-5.288 4.287-9.575 9.575-9.575h38.29c5.288 0 9.575 4.287 9.575 9.575v96.341c0 5.288-4.287 9.575-9.575 9.575z" fill="#6ce79a"/><path d="m486.268 294.733h-22.899c5.288 0 9.575 4.287 9.575 9.575v96.341c0 5.288-4.287 9.575-9.575 9.575h22.899c5.288 0 9.575-4.287 9.575-9.575v-96.341c0-5.288-4.287-9.575-9.575-9.575z" fill="#00d8a2"/><path d="m163.903 477.926h-147.122c-6.262 0-10.72-6.082-8.836-12.053l21.267-67.405c1.217-3.856 4.793-6.478 8.836-6.478h104.588c4.043 0 7.62 2.622 8.836 6.478l21.267 67.405c1.884 5.971-2.574 12.053-8.836 12.053z" fill="#ffea76"/><path d="m172.739 465.873-21.267-67.405c-1.217-3.856-4.793-6.478-8.836-6.478h-23.495c4.043 0 7.62 2.622 8.836 6.478l21.267 67.405c1.884 5.971-2.575 12.053-8.836 12.053h23.495c6.262 0 10.72-6.082 8.836-12.053z" fill="#ffe54c"/><path d="m329.57 477.926h-147.123c-6.262 0-10.72-6.082-8.836-12.053l21.267-67.405c1.217-3.856 4.793-6.478 8.836-6.478h104.588c4.043 0 7.62 2.622 8.836 6.478l21.267 67.405c1.885 5.971-2.574 12.053-8.835 12.053z" fill="#ffea76"/><path d="m338.406 465.873-21.267-67.405c-1.217-3.856-4.793-6.478-8.836-6.478h-23.495c4.043 0 7.62 2.622 8.836 6.478l21.267 67.405c1.884 5.971-2.575 12.053-8.836 12.053h23.495c6.261 0 10.72-6.082 8.836-12.053z" fill="#ffe54c"/><path d="m495.236 477.926h-147.122c-6.262 0-10.72-6.082-8.836-12.053l21.267-67.405c1.217-3.856 4.793-6.478 8.836-6.478h104.588c4.043 0 7.62 2.622 8.836 6.478l21.267 67.405c1.885 5.971-2.574 12.053-8.836 12.053z" fill="#ffea76"/><path d="m504.073 465.873-21.267-67.405c-1.217-3.856-4.793-6.478-8.836-6.478h-23.495c4.043 0 7.62 2.622 8.836 6.478l21.267 67.405c1.884 5.971-2.575 12.053-8.836 12.053h23.495c6.261 0 10.72-6.082 8.836-12.053z" fill="#ffe54c"/><path d="m246.736 391.991h-147.122c-6.262 0-10.72-6.082-8.836-12.053l21.267-67.405c1.217-3.856 4.793-6.478 8.836-6.478h104.588c4.043 0 7.62 2.622 8.836 6.478l21.267 67.405c1.885 5.971-2.574 12.053-8.836 12.053z" fill="#ffea76"/><path d="m255.573 379.937-21.267-67.405c-1.217-3.856-4.793-6.478-8.836-6.478h-23.495c4.043 0 7.62 2.622 8.836 6.478l21.267 67.405c1.884 5.971-2.575 12.053-8.836 12.053h23.495c6.261.001 10.72-6.081 8.836-12.053z" fill="#ffe54c"/><path d="m412.403 391.991h-147.122c-6.262 0-10.72-6.082-8.836-12.053l21.267-67.405c1.217-3.856 4.793-6.478 8.836-6.478h104.588c4.043 0 7.62 2.622 8.836 6.478l21.267 67.405c1.884 5.971-2.574 12.053-8.836 12.053z" fill="#ffea76"/><path d="m421.239 379.937-21.267-67.405c-1.217-3.856-4.793-6.478-8.836-6.478h-23.495c4.043 0 7.62 2.622 8.836 6.478l21.267 67.405c1.884 5.971-2.575 12.053-8.836 12.053h23.495c6.262.001 10.72-6.081 8.836-12.053z" fill="#ffe54c"/><g><path d="m168.846 340.073h-38.29c-5.288 0-9.575-4.287-9.575-9.575v-85.016c0-5.288 4.287-9.575 9.575-9.575h38.29c5.288 0 9.575 4.287 9.575 9.575v85.016c0 5.288-4.287 9.575-9.575 9.575z" fill="#ff6470"/><path d="m171.846 235.906h-22.899c5.288 0 9.575 4.287 9.575 9.575v85.016c0 5.288-4.287 9.575-9.575 9.575h22.899c5.288 0 9.575-4.287 9.575-9.575v-85.016c0-5.288-4.287-9.575-9.575-9.575z" fill="#ff4555"/></g><path d="m273.653 242.989h-38.29c-5.288 0-9.575-4.287-9.575-9.575v-171.292c0-5.288 4.287-9.575 9.575-9.575h38.29c5.288 0 9.575 4.287 9.575 9.575v171.292c.001 5.288-4.286 9.575-9.575 9.575z" fill="#6ce79a"/><path d="m276.653 52.547h-22.899c5.288 0 9.575 4.287 9.575 9.575v171.292c0 5.288-4.287 9.575-9.575 9.575h22.899c5.288 0 9.575-4.287 9.575-9.575v-171.292c.001-5.288-4.286-9.575-9.575-9.575z" fill="#00d8a2"/><g><path d="m378.461 334.421h-38.29c-5.288 0-9.575-4.287-9.575-9.575v-86.535c0-5.288 4.287-9.575 9.575-9.575h38.29c5.288 0 9.575 4.287 9.575 9.575v86.535c0 5.288-4.287 9.575-9.575 9.575z" fill="#ff6470"/><path d="m381.461 228.735h-22.899c5.288 0 9.575 4.287 9.575 9.575v86.535c0 5.288-4.287 9.575-9.575 9.575h22.899c5.288 0 9.575-4.287 9.575-9.575v-86.535c0-5.288-4.287-9.575-9.575-9.575z" fill="#ff4555"/></g></g><g><path d="m511.225 463.616-15.402-48.815c4.563-3.09 7.521-8.317 7.521-14.151v-36.916c0-4.143-3.357-7.5-7.5-7.5s-7.5 3.357-7.5 7.5v28.882c-2.976-4.978-8.365-8.125-14.374-8.125h-31.066v-80.183c0-1.145.931-2.075 2.075-2.075h41.29c1.145 0 2.075.931 2.075 2.075v30.425c0 4.143 3.357 7.5 7.5 7.5s7.5-3.357 7.5-7.5v-30.425c0-9.415-7.66-17.075-17.075-17.075h-13.145v-37.312c0-4.143-3.357-7.5-7.5-7.5s-7.5 3.357-7.5 7.5v37.312h-13.146c-9.415 0-17.075 7.66-17.075 17.075v71.822l-20.778-65.853c-1.386-4.396-4.537-7.994-8.588-9.996v-61.971c0-9.415-7.66-17.075-17.076-17.075h-13.145v-21.733c0-4.143-3.357-7.5-7.5-7.5s-7.5 3.357-7.5 7.5v21.733h-13.145c-9.415 0-17.075 7.66-17.075 17.075v60.245h-36.548c-7.352 0-13.777 4.71-15.989 11.721l-14.551 46.117-14.551-46.117c-2.212-7.011-8.637-11.721-15.988-11.721h-36.548v-53.074c0-9.415-7.66-17.075-17.075-17.075h-13.145v-14.906c0-4.143-3.357-7.5-7.5-7.5s-7.5 3.357-7.5 7.5v14.906h-13.146c-9.415 0-17.075 7.66-17.075 17.075v54.794c-4.053 1.993-7.192 5.573-8.588 10.001l-20.779 65.858v-41.825c0-9.415-7.66-17.075-17.075-17.075h-13.144v-37.314c0-4.143-3.357-7.5-7.5-7.5s-7.5 3.357-7.5 7.5v37.313h-13.145c-9.416 0-17.076 7.66-17.076 17.075v66.341c0 5.848 2.933 11.076 7.517 14.165l-15.398 48.803c-1.625 5.15-.726 10.602 2.468 14.957 3.192 4.354 8.12 6.853 13.521 6.853h34.562c4.143 0 7.5-3.357 7.5-7.5s-3.357-7.5-7.5-7.5h-34.562c-.739 0-1.183-.393-1.424-.722s-.482-.87-.26-1.575l21.269-67.406c.232-.737.908-1.232 1.683-1.232h104.588c.774 0 1.45.496 1.684 1.234l21.268 67.403c.167.529.097 1.09-.26 1.576-.242.329-.685.722-1.425.722h-83.56c-4.143 0-7.5 3.357-7.5 7.5s3.357 7.5 7.5 7.5h83.56c3.379 0 6.573-.978 9.272-2.777 2.7 1.799 5.894 2.777 9.272 2.777h147.122c3.378 0 6.572-.978 9.272-2.776 2.699 1.798 5.893 2.776 9.272 2.776h147.123c5.4 0 10.328-2.498 13.521-6.853s4.092-9.807 2.467-14.958zm-173.129-225.306c0-1.145.931-2.075 2.075-2.075h41.289c1.145 0 2.076.931 2.076 2.075v86.535c0 1.145-.932 2.075-2.076 2.075h-41.289c-1.145 0-2.075-.931-2.075-2.075zm-53.232 76.48c.233-.738.91-1.234 1.685-1.234h36.548v11.29c0 9.415 7.66 17.075 17.075 17.075h13.145v7.312c0 4.143 3.357 7.5 7.5 7.5s7.5-3.357 7.5-7.5v-7.312h13.145c7.55 0 13.97-4.925 16.219-11.729l16.408 52.002c.223.706-.019 1.247-.26 1.576-.242.329-.685.722-1.425.722h-147.123c-.74 0-1.183-.393-1.424-.722-.35-.478-.433-1.026-.26-1.575zm53.978 127.54-13.516-42.839h27.032zm-210.361-196.849c0-1.145.931-2.075 2.075-2.075h41.29c1.145 0 2.075.931 2.075 2.075v85.016c0 1.145-.931 2.075-2.075 2.075h-41.29c-1.145 0-2.075-.931-2.075-2.075zm-104.808 147.135v-58.308c0-1.145.932-2.075 2.076-2.075h41.289c1.145 0 2.075.931 2.075 2.075v50.183h-31.065c-6.009 0-11.399 3.148-14.375 8.125zm75.941-8.125c-.739 0-1.183-.393-1.424-.722s-.482-.87-.26-1.575l15.671-49.668c1.007 8.462 8.227 15.046 16.955 15.046h13.146v7.313c0 4.143 3.357 7.5 7.5 7.5s7.5-3.357 7.5-7.5v-7.313h13.145c9.415 0 17.075-7.66 17.075-17.075v-16.941h36.548c.774 0 1.45.496 1.684 1.234l21.268 67.403c.169.537.098 1.088-.26 1.576-.241.329-.685.722-1.424.722zm60.045 15h27.032l-13.516 42.837zm169.911 70.936h-147.122c-.74 0-1.183-.393-1.425-.722-.351-.479-.433-1.028-.26-1.575l21.268-67.404c.233-.738.909-1.234 1.684-1.234h104.588c.774 0 1.451.496 1.685 1.234l21.267 67.405c.176.557.086 1.103-.26 1.574-.243.329-.685.722-1.425.722zm167.091-.722c-.241.329-.685.722-1.424.722h-147.123c-.739 0-1.183-.393-1.424-.722-.354-.483-.429-1.041-.26-1.575l21.268-67.404c.233-.738.909-1.234 1.684-1.234h104.588c.774 0 1.45.496 1.684 1.234l21.268 67.403c.221.706-.02 1.247-.261 1.576z"/><path d="m235.364 250.489h13.145v7.312c0 4.143 3.357 7.5 7.5 7.5s7.5-3.357 7.5-7.5v-7.312h13.146c9.415 0 17.075-7.66 17.075-17.075v-171.292c0-9.415-7.66-17.075-17.075-17.075h-13.146v-10.956c0-4.143-3.357-7.5-7.5-7.5s-7.5 3.357-7.5 7.5v10.956h-13.145c-9.415 0-17.075 7.66-17.075 17.075v28.604c0 4.143 3.357 7.5 7.5 7.5s7.5-3.357 7.5-7.5v-28.604c0-1.145.931-2.075 2.075-2.075h41.29c1.145 0 2.075.931 2.075 2.075v171.292c0 1.145-.931 2.075-2.075 2.075h-41.29c-1.145 0-2.075-.931-2.075-2.075v-113.688c0-4.143-3.357-7.5-7.5-7.5s-7.5 3.357-7.5 7.5v113.688c-.001 9.415 7.66 17.075 17.075 17.075z"/></g></g></svg>