<svg id="Capa_1" enable-background="new 0 0 512 512" height="512" viewBox="0 0 512 512" width="512" xmlns="http://www.w3.org/2000/svg"><path d="m147.178 306.228h77.19v40h-77.19z" fill="#97c5d0" transform="matrix(.707 -.707 .707 .707 -176.266 226.911)"/><path d="m169.088 385.338-110.375 110.375c-11.717 11.717-30.71 11.717-42.426 0l131.588-159.872z" fill="#2d4853"/><path d="m162.017 349.983-145.73 145.73c-11.71-11.71-11.717-30.71 0-42.426l110.375-110.375z" fill="#446875"/><path d="m190.302 364.125-21.214-21.213-17.677 3.535-3.536 17.678 21.213 21.213z" fill="#bbe1e7"/><path d="m132.875 327.912h30v30h-30z" fill="#dffdff" transform="matrix(.707 -.707 .707 .707 -199.164 205)"/><circle cx="324.5" cy="187.5" fill="#2d4853" r="180"/><path d="m430.566 81.434-212.132 212.132c58.485 58.485 153.647 58.485 212.132 0s58.485-153.647 0-212.132z" fill="#aaf4f9"/><path d="m409.353 272.353c58.485-58.485 68.001-144.131 21.213-190.919-58.485-58.485-153.647-58.485-212.132 0s-58.485 153.647 0 212.132c46.788 46.788 132.434 37.272 190.919-21.213z" fill="#dffdff"/><path d="m324.5 0c-103.387 0-187.5 84.113-187.5 187.5 0 41.795 13.751 80.437 36.96 111.649l-19.013 19.014-1.768-1.768c-1.406-1.406-3.314-2.196-5.303-2.196s-3.897.79-5.303 2.196l-131.589 131.588c-7.083 7.083-10.984 16.5-10.984 26.517s3.901 19.434 10.984 26.517c7.082 7.082 16.5 10.983 26.516 10.983s19.434-3.901 26.517-10.983l131.588-131.588c2.929-2.93 2.929-7.678 0-10.607l-1.767-1.767 19.014-19.014c31.212 23.209 69.853 36.959 111.648 36.959 103.388 0 187.5-84.112 187.5-187.5s-84.112-187.5-187.5-187.5zm-271.089 490.409c-4.25 4.25-9.9 6.591-15.91 6.591s-11.66-2.341-15.91-6.591c-4.25-4.249-6.591-9.899-6.591-15.909 0-6.011 2.341-11.661 6.59-15.91l105.072-105.072 31.82 31.82zm115.678-115.677-31.82-31.82 10.607-10.607 1.764 1.764c.009.009 28.284 28.285 28.284 28.285.01.01 1.772 1.772 1.772 1.772zm14.143-28.284-17.678-17.678 17.887-17.887c5.496 6.276 11.403 12.182 17.678 17.678zm141.268 13.552c-95.116 0-172.5-77.383-172.5-172.5s77.384-172.5 172.5-172.5c95.118 0 172.5 77.383 172.5 172.5s-77.382 172.5-172.5 172.5z"/><path d="m324.5 30c-36.206 0-71.588 12.645-99.63 35.605-3.205 2.624-3.676 7.35-1.051 10.554 2.624 3.206 7.349 3.677 10.554 1.052 25.369-20.771 57.377-32.211 90.127-32.211 78.576 0 142.5 63.925 142.5 142.5s-63.924 142.5-142.5 142.5c-78.574 0-142.5-63.925-142.5-142.5 0-32.75 11.439-64.758 32.211-90.128 2.624-3.205 2.153-7.93-1.052-10.554-3.206-2.625-7.93-2.155-10.555 1.052-22.958 28.042-35.604 63.425-35.604 99.63 0 86.846 70.654 157.5 157.5 157.5s157.5-70.654 157.5-157.5-70.654-157.5-157.5-157.5z"/></svg>