<svg id="Capa_1" enable-background="new 0 0 512 512" height="512" viewBox="0 0 512 512" width="512" xmlns="http://www.w3.org/2000/svg"><g><path d="m370 504.5h-228c-20.987 0-38-17.013-38-38v-421c0-20.987 17.013-38 38-38h228c20.987 0 38 17.013 38 38v421c0 20.987-17.013 38-38 38z" fill="#756e78"/><path d="m370 7.5h-30c20.987 0 38 17.013 38 38v421c0 20.987-17.013 38-38 38h30c20.987 0 38-17.013 38-38v-421c0-20.987-17.013-38-38-38z" fill="#665e66"/><path d="m378 443h-244v-397.5c0-4.418 3.582-8 8-8h228c4.418 0 8 3.582 8 8z" fill="#ecf4ff"/><path d="m370 37.5h-30c4.418 0 8 3.582 8 8v397.5h30v-397.5c0-4.418-3.582-8-8-8z" fill="#ddeafb"/><path d="m370 504.5h-228c-20.987 0-38-17.013-38-38v-23.5h304v23.5c0 20.987-17.013 38-38 38z" fill="#61a2f9"/><path d="m378 443v23.5c0 20.987-17.013 38-38 38h30c20.987 0 38-17.013 38-38v-23.5z" fill="#5490f9"/><path d="m332 367h-154c-4.418 0-8-3.582-8-8v-114c0-4.418 3.582-8 8-8h154c4.418 0 8 3.582 8 8v114c0 4.418-3.582 8-8 8z" fill="#dd4fb1"/><path d="m332 237h-30c4.418 0 8 3.582 8 8v114c0 4.418-3.582 8-8 8h30c4.418 0 8-3.582 8-8v-114c0-4.418-3.582-8-8-8z" fill="#da2ea2"/><g><path d="m370 0h-228c-25.089 0-45.5 20.411-45.5 45.5v52c0 4.142 3.357 7.5 7.5 7.5s7.5-3.358 7.5-7.5v-52c0-16.818 13.683-30.5 30.5-30.5h228c16.817 0 30.5 13.682 30.5 30.5v390h-15v-390c0-8.547-6.953-15.5-15.5-15.5h-228c-8.547 0-15.5 6.953-15.5 15.5v390h-15v-304.723c0-4.142-3.357-7.5-7.5-7.5s-7.5 3.358-7.5 7.5v335.723c0 25.089 20.411 45.5 45.5 45.5h228c25.089 0 45.5-20.411 45.5-45.5v-421c0-25.089-20.411-45.5-45.5-45.5zm0 497h-228c-16.817 0-30.5-13.682-30.5-30.5v-16h207.506c4.143 0 7.5-3.358 7.5-7.5s-3.357-7.5-7.5-7.5h-177.506v-390c0-.276.225-.5.5-.5h228c.275 0 .5.224.5.5v390h-16.053c-4.143 0-7.5 3.358-7.5 7.5s3.357 7.5 7.5 7.5h46.053v16c0 16.818-13.683 30.5-30.5 30.5z"/><path d="m347.5 245c0-8.547-6.953-15.5-15.5-15.5h-154c-8.547 0-15.5 6.953-15.5 15.5v114c0 8.547 6.953 15.5 15.5 15.5h154c8.547 0 15.5-6.953 15.5-15.5zm-15 114c0 .276-.225.5-.5.5h-154c-.275 0-.5-.224-.5-.5v-114c0-.276.225-.5.5-.5h154c.275 0 .5.224.5.5z"/><path d="m205 278h32.556c4.143 0 7.5-3.358 7.5-7.5s-3.357-7.5-7.5-7.5h-32.556c-4.143 0-7.5 3.358-7.5 7.5s3.357 7.5 7.5 7.5z"/><path d="m305 294.5h-100c-4.143 0-7.5 3.358-7.5 7.5s3.357 7.5 7.5 7.5h100c4.143 0 7.5-3.358 7.5-7.5s-3.357-7.5-7.5-7.5z"/><path d="m271.777 326.5h-66.777c-4.143 0-7.5 3.358-7.5 7.5s3.357 7.5 7.5 7.5h66.777c4.143 0 7.5-3.358 7.5-7.5s-3.357-7.5-7.5-7.5z"/><path d="m191.845 155.86c4.143 0 7.5-3.358 7.5-7.5v-20.182l16.459 24.378c1.421 2.104 3.771 3.304 6.217 3.304.729 0 1.469-.107 2.193-.329 3.152-.965 5.306-3.875 5.306-7.172v-44.694c0-4.142-3.357-7.5-7.5-7.5s-7.5 3.358-7.5 7.5v20.182l-16.459-24.377c-1.845-2.731-5.255-3.941-8.41-2.975-3.152.965-5.306 3.875-5.306 7.172v44.694c0 4.141 3.357 7.499 7.5 7.499z"/><path d="m249 155.86h15.5c4.143 0 7.5-3.358 7.5-7.5s-3.357-7.5-7.5-7.5h-8v-37.194c0-4.142-3.357-7.5-7.5-7.5s-7.5 3.358-7.5 7.5v44.694c0 4.142 3.357 7.5 7.5 7.5z"/><path d="m291.237 155.86c4.143 0 7.5-3.358 7.5-7.5v-9.794h7.718c11.689 0 21.2-9.51 21.2-21.2s-9.511-21.2-21.2-21.2h-15.218c-4.143 0-7.5 3.358-7.5 7.5v44.694c0 4.142 3.358 7.5 7.5 7.5zm7.5-44.693h7.718c3.419 0 6.2 2.781 6.2 6.2 0 3.418-2.781 6.2-6.2 6.2h-7.718z"/><path d="m205.944 466.25h-18c-4.143 0-7.5 3.358-7.5 7.5s3.357 7.5 7.5 7.5h18c4.143 0 7.5-3.358 7.5-7.5s-3.357-7.5-7.5-7.5z"/><path d="m265 466h-18c-4.143 0-7.5 3.358-7.5 7.5s3.357 7.5 7.5 7.5h18c4.143 0 7.5-3.358 7.5-7.5s-3.357-7.5-7.5-7.5z"/><path d="m324.056 465.75h-18c-4.143 0-7.5 3.358-7.5 7.5s3.357 7.5 7.5 7.5h18c4.143 0 7.5-3.358 7.5-7.5s-3.358-7.5-7.5-7.5z"/></g></g></svg>