<svg xmlns="http://www.w3.org/2000/svg" version="1.1" xmlns:xlink="http://www.w3.org/1999/xlink" width="512" height="512" x="0" y="0" viewBox="0 0 512 512" style="enable-background:new 0 0 512 512" xml:space="preserve" class=""><g><path d="M296.081 344.177H22.903c-8.507 0-15.403-6.896-15.403-15.403V183.226c0-8.507 6.896-15.403 15.403-15.403h353.968c8.507 0 15.403 6.896 15.403 15.403v40.71M183.855 103.694 55.597 167.823M344.177 167.823l-128.258-64.13" style="stroke-width:15;stroke-linecap:round;stroke-linejoin:round;stroke-miterlimit:10;" fill="none" stroke="#2d4942" stroke-width="15" stroke-linecap="round" stroke-linejoin="round" stroke-miterlimit="10" data-original="#000000" opacity="1"></path><circle cx="416.323" cy="344.177" r="88.177" style="stroke-width:15;stroke-linecap:round;stroke-linejoin:round;stroke-miterlimit:10;" fill="none" stroke="#2d4942" stroke-width="15" stroke-linecap="round" stroke-linejoin="round" stroke-miterlimit="10" data-original="#000000" opacity="1"></circle><circle cx="199.887" cy="95.677" r="16.032" style="stroke-width:15;stroke-linecap:round;stroke-linejoin:round;stroke-miterlimit:10;" fill="none" stroke="#2d4942" stroke-width="15" stroke-linecap="round" stroke-linejoin="round" stroke-miterlimit="10" data-original="#000000" opacity="1"></circle><path d="M416.323 288.065v56.112H360.21M472.435 344.177h-8.016M416.323 392.274v8.016M327.875 256.02l-.372-33.237M280.009 291.477v-68.565l32.375 47.037M252.805 223.097h-28.681v68.066h28.681M250.69 257.13h-26.566M159.462 222.783v68.694M198.355 242.169c0 10.706-9.059 19.385-19.765 19.385-5.31 0-18.994.086-18.994.086s-.086-14.074-.086-19.471c0-4.432-.048-19.385-.048-19.385h19.127c10.707-.001 19.766 8.679 19.766 19.385z" style="stroke-width:15;stroke-linecap:round;stroke-linejoin:round;stroke-miterlimit:10;" fill="none" stroke="#2d4942" stroke-width="15" stroke-linecap="round" stroke-linejoin="round" stroke-miterlimit="10" data-original="#000000" opacity="1"></path><circle cx="97.96" cy="257.13" r="34.347" style="stroke-width:15;stroke-linecap:round;stroke-linejoin:round;stroke-miterlimit:10;" fill="none" stroke="#2d4942" stroke-width="15" stroke-linecap="round" stroke-linejoin="round" stroke-miterlimit="10" data-original="#000000" opacity="1"></circle></g></svg>