<svg height="512pt" viewBox="-15 0 512 512" width="512pt" xmlns="http://www.w3.org/2000/svg"><path d="m128.847656 354.160156h114.59375v150.398438h-114.59375zm0 0" fill="#ffc850"/><path d="m128.847656 354.160156h37v150.398438h-37zm0 0" fill="#feb644"/><path d="m123.914062 297.414062h-96.730468c-3.828125 0-6.933594 3.105469-6.933594 6.933594v200.210938h110.597656v-200.210938c0-3.828125-3.105468-6.933594-6.933594-6.933594zm0 0" fill="#f25c5c"/><path d="m55.253906 297.414062h-28.070312c-3.828125 0-6.933594 3.105469-6.933594 6.933594v200.210938h35.003906zm0 0" fill="#e54a4a"/><path d="m248.371094 244.527344c-3.828125 0-6.929688 3.105468-6.929688 6.933594v253.097656h112.597656v-260.03125zm0 0" fill="#6fd844"/><path d="m276.355469 244.527344h-27.980469c-3.828125 0-6.933594 3.105468-6.933594 6.933594v253.097656h34.914063zm0 0" fill="#5fbf32"/><path d="m455.699219 158.035156h-96.730469c-3.828125 0-6.933594 3.105469-6.933594 6.933594v339.589844h110.597656v-339.589844c0-3.828125-3.105468-6.933594-6.933593-6.933594zm0 0" fill="#00aaf0"/><path d="m387.039062 158.035156h-28.070312c-3.828125 0-6.929688 3.105469-6.929688 6.933594v339.589844h35zm0 0" fill="#039add"/><path d="m96.390625 167.785156c0 11.511719-9.332031 20.84375-20.84375 20.84375s-20.84375-9.332031-20.84375-20.84375c0-11.511718 9.332031-20.84375 20.84375-20.84375s20.84375 9.332032 20.84375 20.84375zm0 0" fill="#f25c5c"/><path d="m206.988281 224.527344c0 11.511718-9.332031 20.84375-20.84375 20.84375s-20.84375-9.332032-20.84375-20.84375c0-11.511719 9.332031-20.84375 20.84375-20.84375s20.84375 9.332031 20.84375 20.84375zm0 0" fill="#ffc850"/><path d="m317.582031 114.894531c0 11.511719-9.332031 20.84375-20.84375 20.84375s-20.84375-9.332031-20.84375-20.84375 9.332031-20.84375 20.84375-20.84375 20.84375 9.332031 20.84375 20.84375zm0 0" fill="#6fd844"/><path d="m428.179688 28.402344c0 11.511718-9.332032 20.84375-20.84375 20.84375-11.511719 0-20.84375-9.332032-20.84375-20.84375 0-11.511719 9.332031-20.84375 20.84375-20.84375 11.511718 0 20.84375 9.332031 20.84375 20.84375zm0 0" fill="#00aaf0"/><path d="m79.957031 167.785156c0-6.757812 3.230469-12.75 8.21875-16.558594-3.507812-2.675781-7.875-4.285156-12.628906-4.285156-11.507813 0-20.839844 9.332032-20.839844 20.84375 0 11.511719 9.328125 20.84375 20.839844 20.84375 4.753906 0 9.121094-1.609375 12.628906-4.285156-4.988281-3.8125-8.21875-9.800781-8.21875-16.558594zm0 0" fill="#e54a4a"/><path d="m190.550781 224.527344c0-6.757813 3.234375-12.746094 8.21875-16.554688-3.503906-2.679687-7.871093-4.289062-12.625-4.289062-11.511719 0-20.84375 9.332031-20.84375 20.84375 0 11.511718 9.332031 20.84375 20.84375 20.84375 4.753907 0 9.121094-1.609375 12.625-4.289063-4.984375-3.808593-8.21875-9.796875-8.21875-16.554687zm0 0" fill="#feb644"/><path d="m301.148438 114.898438c0-6.761719 3.230468-12.75 8.21875-16.558594-3.507813-2.675782-7.875-4.285156-12.628907-4.285156-11.507812 0-20.839843 9.332031-20.839843 20.84375 0 11.511718 9.328124 20.84375 20.839843 20.84375 4.753907 0 9.121094-1.609376 12.628907-4.289063-4.988282-3.808594-8.21875-9.796875-8.21875-16.554687zm0 0" fill="#5fbf32"/><path d="m411.742188 28.402344c0-6.757813 3.230468-12.746094 8.21875-16.554688-3.507813-2.679687-7.875-4.289062-12.625-4.289062-11.511719 0-20.84375 9.332031-20.84375 20.84375 0 11.511718 9.332031 20.84375 20.84375 20.84375 4.75 0 9.117187-1.609375 12.625-4.285156-4.988282-3.808594-8.21875-9.796876-8.21875-16.558594zm0 0" fill="#039add"/><path d="m7.5 512h467.910156c4.140625 0 7.5-3.359375 7.5-7.5 0-4.144531-3.359375-7.5-7.5-7.5h-5.265625v-147.785156c0-4.144532-3.355469-7.5-7.5-7.5-4.140625 0-7.5 3.355468-7.5 7.5v147.785156h-95.59375v-331.523438h95.59375v148.738282c0 4.140625 3.359375 7.5 7.5 7.5 4.144531 0 7.5-3.359375 7.5-7.5v-149.308594c0-7.957031-6.472656-14.429688-14.433593-14.429688h-96.730469c-7.957031 0-14.429688 6.472657-14.429688 14.429688v72.0625h-30.296875c-4.144531 0-7.503906 3.359375-7.503906 7.5s3.359375 7.5 7.503906 7.5h30.296875v245.03125h-95.597656v-245.03125h30.296875c4.144531 0 7.5-3.359375 7.5-7.5s-3.355469-7.5-7.5-7.5h-30.863281c-7.960938 0-14.433594 6.472656-14.433594 14.433594v95.199218h-95.59375v-42.3125c0-7.960937-6.476563-14.433593-14.433594-14.433593h-96.730469c-7.957031 0-14.429687 6.472656-14.429687 14.433593v192.710938h-5.265625c-4.144531 0-7.5 3.355469-7.5 7.5 0 4.140625 3.359375 7.5 7.5 7.5zm130.859375-150.398438h95.597656v135.398438h-95.597656zm-110.59375-56.746093h95.59375v192.144531h-95.59375zm0 0"/><path d="m75.5625 196.066406c7.800781 0 14.878906-3.167968 20.007812-8.285156l62.773438 31.230469c-.34375 1.765625-.53125 3.589843-.53125 5.457031 0 15.628906 12.714844 28.34375 28.34375 28.34375s28.34375-12.714844 28.34375-28.34375c0-5.050781-1.335938-9.792969-3.660156-13.90625l71.792968-71.164062c4.160157 2.402343 8.980469 3.78125 14.121094 3.78125 15.628906 0 28.339844-12.714844 28.339844-28.34375 0-3.871094-.78125-7.5625-2.191406-10.925782l67.546875-52.828125c4.722656 3.519531 10.570312 5.605469 16.898437 5.605469 15.628906 0 28.34375-12.714844 28.34375-28.34375s-12.714844-28.34375-28.34375-28.34375-28.34375 12.714844-28.34375 28.34375c0 3.871094.78125 7.5625 2.195313 10.929688l-67.546875 52.824218c-4.71875-3.519531-10.570313-5.601562-16.898438-5.601562-15.628906 0-28.34375 12.714844-28.34375 28.34375 0 5.050781 1.332032 9.792968 3.660156 13.90625l-71.792968 71.164062c-11.542969-6.664062-26.226563-4.386718-35.234375 5.675782l-62.015625-30.851563c.570312-2.242187.878906-4.589844.878906-7.007813 0-15.628906-12.714844-28.34375-28.34375-28.34375s-28.34375 12.714844-28.34375 28.34375c0 15.628907 12.714844 28.339844 28.34375 28.339844zm331.785156-181.066406c7.359375 0 13.34375 5.984375 13.34375 13.34375 0 7.355469-5.984375 13.339844-13.34375 13.339844-7.355468 0-13.34375-5.984375-13.34375-13.339844 0-7.359375 5.988282-13.34375 13.34375-13.34375zm-110.59375 86.496094c7.355469 0 13.34375 5.984375 13.34375 13.339844 0 7.359374-5.988281 13.34375-13.34375 13.34375-7.359375 0-13.34375-5.984376-13.34375-13.34375 0-7.355469 5.984375-13.339844 13.34375-13.339844zm-110.597656 109.628906c7.359375 0 13.34375 5.984375 13.34375 13.34375 0 7.355469-5.984375 13.339844-13.34375 13.339844-7.355469 0-13.339844-5.984375-13.339844-13.339844 0-7.359375 5.984375-13.34375 13.339844-13.34375zm-110.59375-56.742188c7.355469 0 13.34375 5.984376 13.34375 13.339844 0 7.359375-5.988281 13.34375-13.34375 13.34375-7.359375 0-13.34375-5.984375-13.34375-13.34375 0-7.355468 5.988281-13.339844 13.34375-13.339844zm0 0"/></svg>