<?xml version="1.0" encoding="iso-8859-1"?>
<!-- Generator: Adobe Illustrator 19.0.0, SVG Export Plug-In . SVG Version: 6.00 Build 0)  -->
<svg version="1.1" id="Capa_1" xmlns="http://www.w3.org/2000/svg" xmlns:xlink="http://www.w3.org/1999/xlink" x="0px" y="0px"
	 viewBox="0 0 511.999 511.999" style="enable-background:new 0 0 511.999 511.999;" xml:space="preserve">
<circle style="fill:#85C2EF;" cx="467.478" cy="173.751" r="19.091"/>
<path style="fill:#69AFEB;" d="M469.271,173.747c0-6.686,3.444-12.561,8.649-15.969c-3.001-1.965-6.583-3.118-10.439-3.118
	c-10.542,0-19.087,8.546-19.087,19.087s8.546,19.087,19.087,19.087c3.855,0,7.437-1.152,10.439-3.118
	C472.717,186.306,469.271,180.433,469.271,173.747z"/>
<circle style="fill:#FFA92C;" cx="73.224" cy="173.751" r="19.091"/>
<path style="fill:#F2961D;" d="M83.229,157.512c-12.717-7.851-29.088,1.342-29.088,16.235c0,14.89,16.372,24.085,29.088,16.235
	C71.126,182.509,71.117,164.989,83.229,157.512z"/>
<circle style="fill:#FFA92C;" cx="204.362" cy="304.538" r="19.091"/>
<path style="fill:#F2961D;" d="M214.359,288.302c-2.911-1.797-6.328-2.852-10.001-2.852c-10.542,0-19.087,8.546-19.087,19.087
	c0,10.542,8.546,19.087,19.087,19.087c3.672,0,7.089-1.055,10.001-2.852C202.256,313.3,202.247,295.78,214.359,288.302z"/>
<circle style="fill:#FFA92C;" cx="333.93" cy="307.209" r="19.091"/>
<path style="fill:#F2961D;" d="M334.844,307.204c0-6.869,3.641-12.874,9.087-16.235c-2.911-1.797-6.328-2.852-10.001-2.852
	c-10.542,0-19.087,8.546-19.087,19.087c0,10.542,8.546,19.087,19.087,19.087c3.672,0,7.089-1.055,10.001-2.852
	C338.486,320.076,334.844,314.073,334.844,307.204z"/>
<circle style="fill:#FFA92C;" cx="467.478" cy="370.872" r="19.091"/>
<path style="fill:#F2961D;" d="M468.396,370.874c0-6.869,3.641-12.874,9.087-16.235c-2.911-1.797-6.328-2.852-10.001-2.852
	c-10.542,0-19.087,8.546-19.087,19.087c0,10.542,8.546,19.087,19.087,19.087c3.672,0,7.089-1.055,10.001-2.852
	C472.038,383.746,468.396,377.743,468.396,370.874z"/>
<circle style="fill:#85C2EF;" cx="333.93" cy="239.455" r="19.091"/>
<path style="fill:#69AFEB;" d="M335.719,239.456c0-6.686,3.444-12.561,8.649-15.969c-3.001-1.965-6.583-3.118-10.439-3.118
	c-10.542,0-19.087,8.546-19.087,19.087c0,10.542,8.546,19.087,19.087,19.087c3.855,0,7.437-1.152,10.439-3.118
	C339.164,252.015,335.719,246.142,335.719,239.456z"/>
<circle style="fill:#85C2EF;" cx="270.356" cy="370.872" r="19.091"/>
<path style="fill:#69AFEB;" d="M272.144,370.874c0-6.686,3.444-12.561,8.649-15.969c-3.001-1.965-6.583-3.118-10.439-3.118
	c-10.542,0-19.087,8.546-19.087,19.087c0,10.542,8.546,19.087,19.087,19.087c3.855,0,7.437-1.152,10.439-3.118
	C275.589,383.434,272.144,377.56,272.144,370.874z"/>
<circle style="fill:#85C2EF;" cx="138.938" cy="370.872" r="19.091"/>
<path style="fill:#69AFEB;" d="M149.376,354.905c-3.001-1.965-6.583-3.118-10.439-3.118c-10.542,0-19.087,8.546-19.087,19.087
	c0,15.172,16.886,24.247,29.525,15.969C137.855,379.297,137.843,362.458,149.376,354.905z"/>
<g>
	<path style="fill:#020202;" d="M504.5,476.133H44.553l81.67-81.904c3.775,2.06,8.1,3.232,12.696,3.232
		c12.056,0,22.256-8.068,25.504-19.087h80.412c3.246,11.019,13.448,19.087,25.504,19.087c14.66,0,26.588-11.928,26.588-26.588
		c0-7.669-3.268-14.586-8.481-19.443l19.382-38.765h0.063c2.526,12.049,13.233,21.126,26.021,21.126
		c8.695,0,16.427-4.195,21.281-10.668l86.108,43.055c-0.273,1.525-0.424,3.093-0.424,4.696c0,14.66,11.928,26.588,26.588,26.588
		c14.66,0,26.588-11.928,26.588-26.588s-11.928-26.588-26.588-26.588c-7.669,0-14.586,3.268-19.443,8.481l-87.329-43.665
		c-0.085-0.043-0.173-0.074-0.259-0.114c0.039-0.59,0.067-1.184,0.067-1.784c0-14.66-11.928-26.588-26.588-26.588
		c-4.051,0-7.891,0.914-11.331,2.542l8.626-17.251c0.889,0.09,1.792,0.137,2.705,0.137c14.66,0,26.588-11.928,26.588-26.588
		c0-1.259-0.094-2.495-0.264-3.707l29.999-15c3.704-1.853,5.206-6.357,3.354-10.064c-1.853-3.704-6.354-5.203-10.064-3.354
		l-29.509,14.755c-4.879-5.639-12.079-9.219-20.104-9.219c-14.66,0-26.588,11.928-26.588,26.588c0,8.377,3.898,15.856,9.971,20.732
		l-18.738,37.476h-68.535c-3.038-11.338-13.399-19.713-25.682-19.713c-4.697,0-9.111,1.229-12.944,3.375L154.8,244.73
		c-2.929-2.927-7.677-2.929-10.608,0c-2.929,2.93-2.929,7.678,0,10.607l36.693,36.695c-1.997,3.73-3.134,7.987-3.134,12.507
		c0,14.66,11.928,26.588,26.588,26.588c11.827,0,21.87-7.764,25.313-18.461h61.403l-16.022,32.045
		c-1.526-0.273-3.093-0.424-4.696-0.424c-12.056,0-22.256,8.068-25.504,19.087h-80.412c-3.246-11.019-13.448-19.087-25.504-19.087
		c-14.66,0-26.588,11.928-26.588,26.588c0,4.622,1.188,8.972,3.271,12.762l-81.619,81.853V85.81l23.619,66.43
		c-6.647,4.838-10.981,12.673-10.981,21.505c0,14.66,11.928,26.588,26.588,26.588c4.608,0,8.946-1.18,12.728-3.251l33.498,33.497
		c1.465,1.464,3.385,2.196,5.304,2.196s3.839-0.732,5.304-2.196c2.929-2.93,2.929-7.678,0-10.608l-33.498-33.497
		c2.072-3.782,3.252-8.12,3.252-12.729c0-14.66-11.928-26.588-26.588-26.588c-0.496,0-0.989,0.016-1.478,0.043L33.982,41.035V9.386
		c0-4.143-3.357-7.5-7.5-7.5s-7.5,3.357-7.5,7.5v25.442H7.5c-4.143,0-7.5,3.357-7.5,7.5s3.357,7.5,7.5,7.5h11.481v50.708H7.5
		c-4.143,0-7.5,3.357-7.5,7.5s3.357,7.5,7.5,7.5h11.481v50.708H7.5c-4.143,0-7.5,3.357-7.5,7.5c0,4.143,3.357,7.5,7.5,7.5h11.481
		v50.708H7.5c-4.143,0-7.5,3.357-7.5,7.5c0,4.143,3.357,7.5,7.5,7.5h11.481v50.708H7.5c-4.143,0-7.5,3.357-7.5,7.5
		c0,4.143,3.357,7.5,7.5,7.5h11.481v50.708H7.5c-4.143,0-7.5,3.357-7.5,7.5s3.357,7.5,7.5,7.5h11.481v50.708H7.5
		c-4.143,0-7.5,3.357-7.5,7.5c0,4.143,3.357,7.5,7.5,7.5h11.481v39.55v0.008c0,0.245,0.013,0.49,0.037,0.735
		c0.012,0.124,0.035,0.244,0.053,0.365c0.018,0.12,0.031,0.241,0.055,0.36c0.027,0.136,0.064,0.268,0.099,0.402
		c0.027,0.103,0.049,0.207,0.08,0.31c0.039,0.13,0.088,0.256,0.134,0.383c0.038,0.103,0.071,0.208,0.113,0.31
		c0.049,0.119,0.107,0.234,0.163,0.35c0.05,0.105,0.096,0.212,0.152,0.315c0.061,0.114,0.131,0.222,0.197,0.333
		c0.06,0.099,0.115,0.2,0.18,0.296c0.087,0.13,0.184,0.253,0.279,0.378c0.054,0.07,0.102,0.143,0.158,0.211
		c0.159,0.193,0.326,0.378,0.503,0.555l0.001,0.001c0.009,0.009,0.019,0.016,0.028,0.025c0.166,0.164,0.34,0.322,0.521,0.47
		c0.079,0.065,0.162,0.121,0.243,0.182c0.114,0.086,0.226,0.174,0.345,0.253c0.101,0.068,0.206,0.126,0.31,0.188
		c0.106,0.063,0.21,0.13,0.319,0.188c0.109,0.058,0.22,0.107,0.331,0.159c0.11,0.052,0.219,0.107,0.332,0.154
		c0.11,0.045,0.222,0.082,0.333,0.122c0.119,0.043,0.237,0.088,0.359,0.125c0.112,0.034,0.225,0.059,0.339,0.087
		c0.124,0.031,0.246,0.066,0.372,0.091c0.131,0.026,0.263,0.041,0.396,0.06c0.11,0.016,0.218,0.037,0.329,0.047
		c0.246,0.024,0.493,0.037,0.739,0.037h39.227v11.481c0,4.143,3.357,7.5,7.5,7.5s7.5-3.357,7.5-7.5v-11.481h50.708v11.481
		c0,4.143,3.357,7.5,7.5,7.5c4.143,0,7.5-3.357,7.5-7.5v-11.481h50.708v11.481c0,4.143,3.357,7.5,7.5,7.5c4.143,0,7.5-3.357,7.5-7.5
		v-11.481h50.708v11.481c0,4.143,3.357,7.5,7.5,7.5c4.143,0,7.5-3.357,7.5-7.5v-11.481h50.708v11.481c0,4.143,3.357,7.5,7.5,7.5
		s7.5-3.357,7.5-7.5v-11.481h50.708v11.481c0,4.143,3.357,7.5,7.5,7.5s7.5-3.357,7.5-7.5v-11.481h50.708v11.481
		c0,4.143,3.357,7.5,7.5,7.5c4.143,0,7.5-3.357,7.5-7.5v-11.481h29.535c4.143,0,7.5-3.357,7.5-7.5S508.642,476.133,504.5,476.133z
		 M467.464,359.287c6.389,0,11.587,5.197,11.587,11.587s-5.197,11.587-11.587,11.587c-6.389,0-11.587-5.197-11.587-11.587
		S461.075,359.287,467.464,359.287z M333.911,227.868c6.389,0,11.587,5.197,11.587,11.587c0,6.389-5.197,11.587-11.587,11.587
		c-6.389,0-11.587-5.197-11.587-11.587C322.325,233.065,327.522,227.868,333.911,227.868z M333.911,295.617
		c6.389,0,11.587,5.197,11.587,11.587c0,6.389-5.197,11.587-11.587,11.587c-6.389,0-11.587-5.197-11.587-11.587
		C322.325,300.814,327.522,295.617,333.911,295.617z M204.339,316.124c-6.389,0-11.587-5.197-11.587-11.587
		c0-6.389,5.197-11.587,11.587-11.587s11.587,5.197,11.587,11.587C215.926,310.927,210.729,316.124,204.339,316.124z
		 M270.336,359.287c6.389,0,11.587,5.197,11.587,11.587s-5.197,11.587-11.587,11.587c-6.389,0-11.587-5.197-11.587-11.587
		S263.948,359.287,270.336,359.287z M138.918,359.287c6.389,0,11.587,5.197,11.587,11.587s-5.197,11.587-11.587,11.587
		c-6.389,0-11.587-5.197-11.587-11.587S132.529,359.287,138.918,359.287z M73.209,162.159c6.389,0,11.587,5.197,11.587,11.587
		c0,6.389-5.197,11.587-11.587,11.587s-11.587-5.197-11.587-11.587C61.623,167.356,66.82,162.159,73.209,162.159z"/>
	<path style="fill:#020202;" d="M418.191,205.887c1.127,0,2.271-0.256,3.349-0.794l26.481-13.24
		c4.857,5.212,11.774,8.48,19.443,8.48c14.66,0,26.588-11.928,26.588-26.588s-11.928-26.588-26.588-26.588
		c-14.66,0-26.588,11.928-26.588,26.588c0,1.603,0.151,3.17,0.424,4.696l-26.47,13.235c-3.704,1.853-5.206,6.357-3.354,10.064
		C412.791,204.367,415.44,205.887,418.191,205.887z M467.464,162.159c6.389,0,11.587,5.197,11.587,11.587
		c0,6.389-5.197,11.587-11.587,11.587c-6.389,0-11.587-5.197-11.587-11.587C455.878,167.356,461.075,162.159,467.464,162.159z"/>
</g>
<g>
</g>
<g>
</g>
<g>
</g>
<g>
</g>
<g>
</g>
<g>
</g>
<g>
</g>
<g>
</g>
<g>
</g>
<g>
</g>
<g>
</g>
<g>
</g>
<g>
</g>
<g>
</g>
<g>
</g>
</svg>
