<svg id="Capa_1" enable-background="new 0 0 512 512" viewBox="0 0 512 512" xmlns="http://www.w3.org/2000/svg"><g><g><path d="m244.732 472.175c0 17.853 14.473 32.325 32.325 32.325 17.853 0 32.325-14.472 32.325-32.325v-91.925h-64.65z" fill="#6cf5c2"/><path d="m279.078 380.25v91.925c0 12.376-6.958 23.123-17.173 28.555 4.52 2.404 9.676 3.771 15.152 3.771 17.853 0 32.325-14.473 32.325-32.325v-91.926z" fill="#00f2a6"/><path d="m244.732 39.825v91.925h64.65v-91.925c0-17.853-14.473-32.325-32.325-32.325-17.852 0-32.325 14.473-32.325 32.325z" fill="#fd8087"/><path d="m277.057 7.5c-5.477 0-10.632 1.367-15.152 3.771 10.215 5.432 17.173 16.179 17.173 28.555v91.925h30.305v-91.926c0-17.852-14.473-32.325-32.326-32.325z" fill="#fe646f"/><path d="m214.932 285.8h124.25v64.65h-124.25z" fill="#8ac9fe" transform="matrix(0 -1 1 0 -41.068 595.182)"/><path d="m232.105 302.973h124.25v30.305h-124.25z" fill="#60b7ff" transform="matrix(0 -1 1 0 -23.895 612.355)"/><path d="m214.932 161.55h124.25v64.65h-124.25z" fill="#ffe177" transform="matrix(0 -1 1 0 83.182 470.932)"/><path d="m232.105 178.723h124.25v30.305h-124.25z" fill="#ffd15b" transform="matrix(0 -1 1 0 100.355 488.105)"/><g><path d="m136.489 139.355 71.492 46.373c5.902 3.828 5.902 12.467 0 16.295l-71.492 46.373c-6.461 4.191-14.996-.446-14.996-8.148v-92.746c-.001-7.701 8.535-12.338 14.996-8.147z" fill="#918291"/><path d="m207.98 185.727-27.108-17.584c-9.861 26.026-32.013 45.997-59.38 52.825v19.279c0 7.701 8.535 12.338 14.996 8.148l71.492-46.373c5.903-3.828 5.903-12.466 0-16.295z" fill="#7a6d79"/></g></g><g><path d="m369.844 441.288 21.733-19.977c3.05-2.803 3.25-7.548.446-10.597-2.802-3.05-7.547-3.25-10.597-.447l-16.768 15.412v-10.579c0-4.142-3.357-7.5-7.5-7.5s-7.5 3.358-7.5 7.5v54.549c0 4.142 3.357 7.5 7.5 7.5s7.5-3.358 7.5-7.5v-12.521l18.572 17.918c1.455 1.404 3.332 2.103 5.206 2.103 1.965 0 3.927-.767 5.398-2.292 2.876-2.981 2.791-7.729-.19-10.605z"/><path d="m365.3 166.601v54.549c0 4.142 3.357 7.5 7.5 7.5s7.5-3.358 7.5-7.5v-54.549c0-4.142-3.357-7.5-7.5-7.5s-7.5 3.357-7.5 7.5z"/><path d="m381.429 311.519-2.421-.892c-6.367-2.342-9.562-3.518-12.457-5.093-.811-.441-1.162-1.232-1.047-2.35.159-1.536 1.303-3.471 4.036-4.295 7.326-2.208 14.189 3.189 14.386 3.347 3.172 2.625 7.87 2.204 10.523-.952 2.665-3.171 2.255-7.902-.916-10.567-.525-.443-13.063-10.786-28.319-6.19-8.063 2.429-13.807 9.147-14.63 17.115-.742 7.169 2.628 13.708 8.793 17.066 3.858 2.101 7.621 3.485 14.452 5.998l2.408.887c1.74.642 7.369 3.02 6.718 6.667-.495 2.773-3.944 5.641-8.858 5.641-5.232 0-10.262-2.102-13.452-5.623-2.782-3.07-7.526-3.301-10.594-.521-3.069 2.782-3.303 7.524-.521 10.594 6.076 6.704 15.031 10.549 24.567 10.549 11.826 0 21.762-7.572 23.625-18.004 1.407-7.878-2.135-18.155-16.293-23.377z"/><path d="m358.053 104.399c4.143 0 7.5-3.358 7.5-7.5v-13.636l16.362 18.591c1.482 1.685 3.553 2.545 5.633 2.545 1.76 0 3.527-.616 4.952-1.87 3.109-2.736 3.411-7.476.675-10.585l-13.171-14.965c8.75-2.968 15.041-11.012 15.041-20.452 0-11.953-10.084-21.677-22.479-21.677h-14.496c-4.143 0-7.5 3.358-7.5 7.5l-.018 54.549c.001 4.143 3.359 7.5 7.501 7.5zm7.518-54.548h6.996c4.054 0 7.479 3.058 7.479 6.677s-3.425 6.677-7.479 6.677c-1.643 0-4.355.01-6.996.022z"/><path d="m277.057 0c-21.962 0-39.83 17.868-39.83 39.83v278.3c0 4.142 3.358 7.5 7.5 7.5s7.5-3.358 7.5-7.5v-54.63h49.66v109.25h-49.66v-19.52c0-4.142-3.358-7.5-7.5-7.5s-7.5 3.358-7.5 7.5v118.94c0 10.638 4.144 20.64 11.667 28.163 7.524 7.523 17.526 11.667 28.163 11.667 21.962 0 39.83-17.868 39.83-39.83v-364.94c0-4.142-3.357-7.5-7.5-7.5s-7.5 3.358-7.5 7.5v17.02h-49.66v-84.42c0-13.691 11.139-24.83 24.83-24.83 6.631 0 12.866 2.583 17.557 7.273 4.69 4.69 7.273 10.925 7.273 17.557v32.3c0 4.142 3.357 7.5 7.5 7.5s7.5-3.358 7.5-7.5v-32.3c0-10.638-4.144-20.64-11.667-28.164-7.523-7.522-17.525-11.666-28.163-11.666zm0 497c-6.631 0-12.866-2.583-17.557-7.274-4.69-4.69-7.273-10.925-7.273-17.556v-84.42h49.66v84.42c0 13.691-11.138 24.83-24.83 24.83zm24.83-357.75v109.25h-49.66v-109.25z"/><path d="m212.062 179.436-71.491-46.373c-5.299-3.437-12.036-3.698-17.583-.683-5.548 3.014-8.995 8.809-8.995 15.123v92.746c0 6.314 3.446 12.109 8.995 15.123 2.571 1.397 5.397 2.09 8.217 2.09 3.266 0 6.523-.93 9.366-2.774l71.491-46.373c4.913-3.187 7.846-8.584 7.846-14.44s-2.934-11.253-7.846-14.439zm-8.163 16.294-71.491 46.373c-.913.592-1.733.375-2.26.088-.527-.286-1.156-.856-1.156-1.943v-92.746c0-1.087.628-1.657 1.156-1.943.282-.154.649-.287 1.069-.287.363 0 .767.1 1.191.375l71.491 46.373c.877.569 1.008 1.406 1.008 1.855s-.131 1.286-1.008 1.855z"/></g></g><g/><g/><g/><g/><g/><g/><g/><g/><g/><g/><g/><g/><g/><g/><g/></svg>