<svg xmlns="http://www.w3.org/2000/svg" version="1.1" xmlns:xlink="http://www.w3.org/1999/xlink" width="512" height="512" x="0" y="0" viewBox="0 0 512 512" style="enable-background:new 0 0 512 512" xml:space="preserve"><g><path d="M165.012 180.523c-64.38-10.753-128.348 23.684-154.344 84.34L0 289.753l88.203 17.642-22.36 37.261 20.704 20.7a45.084 45.084 0 0 0-12.418 8.804c-9.766 9.766-6.723 10-63.656 127.32 118.476-57.492 117.722-54.058 127.32-63.656a44.784 44.784 0 0 0 8.785-12.433l20.723 20.718 37.262-22.355 17.64 88.203 24.89-10.668c60.66-26 95.095-89.98 84.337-154.355 105.902-71.82 180.02-200.809 180.511-331.871L512 0h-15.063C367.25.004 238.106 72.563 165.012 180.523zM42.59 267.664c20.758-38.734 61.707-61.363 104.828-58.96l-42.82 71.362zm77.195 46.047 28.621 28.617-21.222 21.223-23.547-23.547 15.816-26.36zm-3.21 102.89c-3.22 3.22-2.903 2.04-42.454 21.235 19.195-39.55 18.012-39.238 21.23-42.453 5.864-5.863 15.352-5.867 21.22-.004 5.847 5.851 5.85 15.375.003 21.223zm55.378-8.28-23.547-23.551 21.219-21.22 28.621 28.618.066.336zm72.336 61.046-12.398-62.012 71.363-42.816c2.402 43.121-20.23 84.07-58.965 104.828zm53.965-136.828-73.25 43.95-34.156-34.16 63.664-63.665-21.223-21.219-63.664 63.664-34.156-34.16 43.949-73.25C219.41 147.043 282.109 93.664 352.934 61.98l96.855 96.86c-31.723 71.02-85.055 133.808-151.535 173.7zm163.601-204.074-78.554-78.559c31.972-11.156 65.117-17.902 98.199-19.515-1.719 33.054-8.508 66.152-19.645 98.074zm0 0" fill="#2d4942" opacity="1" data-original="#000000"></path><path d="M350.008 161.95c-23.403-23.403-61.48-23.403-84.887 0-23.402 23.402-23.402 61.48 0 84.882 23.402 23.402 61.48 23.406 84.887 0 23.457-23.457 23.46-61.426 0-84.883zm-21.223 63.663c-11.703 11.703-30.738 11.7-42.441 0-11.703-11.703-11.703-30.742 0-42.441 11.699-11.703 30.738-11.703 42.441 0 11.73 11.726 11.73 30.71 0 42.441zm0 0" fill="#2d4942" opacity="1" data-original="#000000"></path></g></svg>