<?xml version="1.0" encoding="iso-8859-1"?>
<!-- Generator: Adobe Illustrator 19.0.0, SVG Export Plug-In . SVG Version: 6.00 Build 0)  -->
<svg version="1.1" id="Capa_1" xmlns="http://www.w3.org/2000/svg" xmlns:xlink="http://www.w3.org/1999/xlink" x="0px" y="0px"
	 viewBox="0 0 512 512" style="enable-background:new 0 0 512 512;" xml:space="preserve">
<path style="fill:#E94F4E;" d="M205.68,62.194L15.44,391.699c-22.364,38.736,5.591,87.157,50.32,87.157h380.48
	c44.729,0,72.685-48.421,50.32-87.157L306.321,62.194C283.955,23.458,228.044,23.458,205.68,62.194z"/>
<polygon style="fill:#EAEAEA;" points="69.743,418.454 256,95.844 442.259,418.454 "/>
<g>
	<rect x="236.87" y="190.51" style="fill:#4E555E;" width="38.255" height="134.9"/>
	<circle style="fill:#4E555E;" cx="255.998" cy="368.699" r="19.128"/>
</g>
<path d="M503.099,387.925l-143.14-247.926c-2.084-3.612-6.704-4.848-10.314-2.763c-3.611,2.085-4.848,6.703-2.763,10.314
	l143.14,247.926c9.138,15.828,9.138,34.727,0,50.554c-9.138,15.828-25.505,25.278-43.781,25.278H65.76
	c-18.276,0-34.643-9.449-43.781-25.277c-9.138-15.828-9.138-34.727,0-50.554l190.24-329.507
	c9.138-15.828,25.504-25.277,43.78-25.277s34.644,9.449,43.782,25.277l33.618,58.227c2.086,3.611,6.704,4.849,10.314,2.763
	c3.611-2.085,4.848-6.703,2.763-10.314l-33.617-58.227C300.991,37.864,279.735,25.591,256,25.592
	c-23.735,0-44.99,12.272-56.858,32.827L8.901,387.925c-11.868,20.555-11.867,45.1,0,65.656
	c11.868,20.555,33.123,32.827,56.858,32.827h380.48c23.735,0,44.991-12.272,56.859-32.828
	C514.967,433.024,514.967,408.479,503.099,387.925z"/>
<path d="M123.393,418.454c0,4.17,3.38,7.55,7.55,7.55h311.315c2.698,0,5.19-1.44,6.539-3.775c1.349-2.336,1.349-5.215,0-7.55
	L262.539,92.069c-1.349-2.336-3.841-3.775-6.539-3.775c-2.698,0-5.19,1.44-6.539,3.775L63.204,414.678
	c-1.349,2.336-1.349,5.215,0,7.55c1.349,2.336,3.841,3.775,6.539,3.775h36.031c4.171,0,7.55-3.381,7.55-7.55
	c0-4.17-3.38-7.55-7.55-7.55H82.82L256,110.944l173.181,299.959H130.944C126.773,410.903,123.393,414.284,123.393,418.454z"/>
<path d="M275.128,332.954c4.171,0,7.55-3.381,7.55-7.55v-134.9c0-4.17-3.38-7.55-7.55-7.55h-38.255c-4.171,0-7.55,3.381-7.55,7.55
	v134.9c0,4.17,3.38,7.55,7.55,7.55H275.128z M244.424,198.054h23.154v119.799h-23.154V198.054z"/>
<path d="M256.001,395.371c14.71,0,26.678-11.968,26.678-26.678s-11.968-26.678-26.678-26.678s-26.678,11.968-26.678,26.678
	S241.29,395.371,256.001,395.371z M256.001,357.115c6.384,0,11.577,5.194,11.577,11.577s-5.194,11.577-11.577,11.577
	c-6.384,0-11.577-5.194-11.577-11.577S249.617,357.115,256.001,357.115z"/>
<g>
</g>
<g>
</g>
<g>
</g>
<g>
</g>
<g>
</g>
<g>
</g>
<g>
</g>
<g>
</g>
<g>
</g>
<g>
</g>
<g>
</g>
<g>
</g>
<g>
</g>
<g>
</g>
<g>
</g>
</svg>
