<svg id="Capa_1" enable-background="new 0 0 512 512" height="512" viewBox="0 0 512 512" width="512" xmlns="http://www.w3.org/2000/svg"><g><path d="m431.716 96.334-35.935 20.404-29.959 45.49c28.106 28.106 45.49 66.934 45.49 109.823 0 36.521-12.605 70.098-33.703 96.617-6.316 7.939-5.629 19.363 1.544 26.537l37.798 37.798c8.298 8.298 21.927 7.704 29.472-1.284 36.247-43.184 58.076-98.877 58.076-159.668.001-68.623-27.813-130.748-72.783-175.717z" fill="#e94444"/><path d="m100.688 272.05c0-42.888 17.384-81.716 45.49-109.823l-29.959-45.49-35.935-20.403c-44.97 44.969-72.784 107.094-72.784 175.716 0 60.791 21.829 116.484 58.076 159.668 7.545 8.989 21.174 9.582 29.472 1.284l37.798-37.798c7.174-7.174 7.86-18.598 1.544-26.537-21.097-26.519-33.702-60.096-33.702-96.617z" fill="#80d261"/><path d="m256 116.737c42.888 0 81.716 17.384 109.822 45.49l65.894-65.894c-44.97-44.969-107.095-72.783-175.716-72.783s-130.746 27.814-175.716 72.784l65.893 65.894c28.107-28.107 66.935-45.491 109.823-45.491z" fill="#ffc344"/><path d="m431.716 96.334-15.342 8.711c30.254 41.168 48.126 92 48.126 147.005 0 45.278-12.109 87.727-33.266 124.287-9.863 17.043-27.605 25.922-45.383 25.564l31.102 31.102c8.298 8.298 21.927 7.704 29.472-1.284 36.247-43.184 58.076-98.877 58.076-159.668-.001-68.623-27.815-130.748-72.785-175.717z" fill="#d83131"/><path d="m419.151 108.899 12.565-12.565c-24.033-24.034-52.966-43.167-85.172-55.773 28.565 17.669 53.282 40.964 72.607 68.338z" fill="#feb237"/><path d="m324.788 476.242-61.739-106.936c-3.133-5.426-10.964-5.426-14.097 0l-61.74 106.936c-3.133 5.426.783 12.209 7.049 12.209h123.479c6.265 0 10.181-6.783 7.048-12.209z" fill="#ffc344"/><path d="m305.11 289.65-24.059 15.885-20.099-75.01 28.778 1.727c13.411.805 26.864-.557 39.842-4.035l92.922-24.898c12.428-3.33 25.203 4.045 28.533 16.473 3.33 12.428-4.045 25.203-16.473 28.533l-92.922 24.898c-12.978 3.478-25.31 9.025-36.522 16.427z" fill="#004281"/><circle cx="256" cy="272.05" fill="#0067c5" r="46.594"/><path d="m256 16.049c-21.678 0-43.219 2.717-64.025 8.074-4.011 1.032-6.426 5.122-5.393 9.133 1.033 4.012 5.125 6.429 9.133 5.393 19.585-5.043 39.868-7.6 60.285-7.6 61.866 0 120.176 23.155 165.029 65.364l-55.326 55.326c-30.056-27.466-68.724-42.503-109.703-42.503s-79.647 15.037-109.703 42.503l-55.326-55.325c21.22-19.967 45.554-35.739 72.428-46.934 3.824-1.593 5.632-5.984 4.04-9.808-1.593-3.824-5.983-5.633-9.807-4.04-92.333 38.461-157.632 129.401-157.632 236.417 0 60.106 21.249 118.523 59.832 164.489 4.944 5.891 12.186 9.462 19.87 9.797 7.54.333 15.118-2.499 20.649-8.029l37.799-37.8c9.891-9.892 10.798-25.587 2.109-36.509-20.981-26.374-32.072-58.169-32.072-91.948 0-39.481 15.375-76.601 43.293-104.519 27.92-27.918 65.039-43.293 104.52-43.293 39.392 0 76.533 15.311 104.515 43.292 11.052 11.059 20.174 23.592 27.195 37.346l-60.078 16.098c-12.221 3.273-24.818 4.551-37.451 3.793l-8.906-.535c-7.547-4.005-16.15-6.276-25.274-6.276-29.827 0-54.094 24.267-54.094 54.094s24.267 54.094 54.094 54.094c19.255 0 36.193-10.113 45.781-25.307l7.461-4.927c10.559-6.971 22.109-12.166 34.331-15.441l20.996-5.626c4.001-1.072 6.375-5.185 5.303-9.186s-5.183-6.38-9.186-5.303l-20.996 5.626c-10.465 2.804-20.494 6.858-29.929 12.088.22-1.976.333-3.984.333-6.018 0-12.004-3.93-23.106-10.571-32.09 10.796-.184 21.517-1.691 31.991-4.498l92.921-24.898c8.415-2.253 17.092 2.756 19.347 11.171 1.092 4.075.532 8.332-1.578 11.986s-5.516 6.268-9.592 7.36c-13.436 3.601-23.255 6.232-37.9 10.156-4.001 1.072-6.375 5.185-5.303 9.186 1.075 4.01 5.197 6.375 9.186 5.303l5.018-1.345c.13 2.549.197 5.11.197 7.666 0 33.786-11.089 65.582-32.068 91.949-8.688 10.916-7.784 26.611 2.105 36.515l37.803 37.803c5.392 5.386 12.894 8.361 20.66 8.021 7.681-.338 14.918-3.909 19.854-9.795 38.585-45.962 59.835-104.38 59.835-164.493 0-141.496-114.514-255.997-256-255.997zm-127.479 357.286c3.937 4.949 3.516 12.07-.978 16.564l-37.798 37.799c-2.509 2.509-5.834 3.802-9.389 3.651-3.545-.155-6.754-1.737-9.035-4.455-36.319-43.268-56.321-98.26-56.321-154.845 0-61.867 23.155-120.176 65.365-165.029l55.326 55.326c-27.465 30.056-42.503 68.724-42.503 109.703 0 37.207 12.218 72.232 35.333 101.286zm127.479-62.192c-21.556 0-39.094-17.537-39.094-39.094s17.538-39.094 39.094-39.094 39.094 17.537 39.094 39.094-17.538 39.094-39.094 39.094zm184.673 115.754c-2.276 2.714-5.481 4.295-9.024 4.451-3.545.161-6.887-1.139-9.396-3.646l-37.796-37.796c-4.495-4.5-4.916-11.624-.978-16.57 23.114-29.051 35.331-64.076 35.331-101.29 0-3.881-.139-7.772-.411-11.628l18.096-4.849c7.946-2.129 14.587-7.225 18.7-14.349s5.206-15.423 3.077-23.369c-4.396-16.402-21.317-26.174-37.718-21.776l-18.06 4.839c-6.824-14.046-15.601-26.972-26.186-38.564l55.33-55.33c42.208 44.852 65.362 103.16 65.362 165.026 0 56.591-20.003 111.583-56.327 154.851z"/><path d="m269.544 365.557c-2.827-4.896-7.89-7.82-13.544-7.82s-10.717 2.924-13.543 7.82l-26.056 45.13c-2.071 3.587-.842 8.174 2.745 10.245 3.586 2.069 8.174.842 10.245-2.745l26.057-45.131c.064-.111.184-.319.553-.319s.489.208.554.32l61.739 106.936c.064.111.184.319 0 .639-.185.319-.425.319-.554.319h-123.479c-.129 0-.369 0-.554-.319-.184-.319-.064-.527 0-.639l17.897-31c2.071-3.587.842-8.174-2.745-10.245-3.588-2.071-8.175-.843-10.245 2.745l-17.897 31c-2.827 4.896-2.827 10.742 0 15.639 2.827 4.896 7.89 7.819 13.544 7.819h123.479c5.654 0 10.717-2.923 13.544-7.819s2.826-10.743 0-15.639z"/><path d="m256 434.862c4.142 0 7.5-3.357 7.5-7.5v-15.531c0-4.143-3.358-7.5-7.5-7.5s-7.5 3.357-7.5 7.5v15.531c0 4.142 3.358 7.5 7.5 7.5z"/><circle cx="256" cy="458.425" r="7.5"/></g></svg>