<svg id="Capa_1" enable-background="new 0 0 512 512" height="512" viewBox="0 0 512 512" width="512" xmlns="http://www.w3.org/2000/svg"><g><g><path d="m475.183 66.072-69.654 84.076-44.066-17.277-110.516 119.835-55.969-31.823-187.478 162.366v121.251h467.683z" fill="#70d9e6"/><path d="m437.787 111.21v393.29h37.396v-438.428z" fill="#3ad1e0"/></g><g><g><g><g><g><path d="m118.122 504.496h-63.692c-5.113 0-9.257-4.145-9.257-9.257v-16.402c0-5.113 4.145-9.257 9.257-9.257h63.692c5.113 0 9.257 4.145 9.257 9.257v16.402c0 5.113-4.145 9.257-9.257 9.257z" fill="#f98824"/><path d="m127.379 478.838v16.404c0 5.11-4.147 9.257-9.257 9.257h-24.968c5.11 0 9.257-4.147 9.257-9.257v-16.404c0-5.119-4.147-9.257-9.257-9.257h24.967c5.111 0 9.258 4.138 9.258 9.257z" fill="#f2671f"/></g></g></g><g><g><g><path d="m121.662 434.654h-63.692c-5.113 0-9.257-4.145-9.257-9.257v-16.402c0-5.113 4.145-9.257 9.257-9.257h63.692c5.113 0 9.257 4.145 9.257 9.257v16.402c0 5.112-4.144 9.257-9.257 9.257z" fill="#f98824"/><path d="m130.919 408.996v16.404c0 5.11-4.147 9.257-9.257 9.257h-24.968c5.11 0 9.257-4.147 9.257-9.257v-16.404c0-5.119-4.147-9.257-9.257-9.257h24.967c5.111 0 9.258 4.138 9.258 9.257z" fill="#f2671f"/></g></g></g><g><g><g><path d="m130.744 469.575h-63.691c-5.113 0-9.257-4.145-9.257-9.257v-16.402c0-5.113 4.145-9.257 9.257-9.257h63.692c5.113 0 9.257 4.145 9.257 9.257v16.402c0 5.112-4.145 9.257-9.258 9.257z" fill="#fcb44d"/><path d="m140.002 443.917v16.404c0 5.11-4.147 9.257-9.257 9.257h-24.967c5.11 0 9.257-4.147 9.257-9.257v-16.404c0-5.119-4.147-9.257-9.257-9.257h24.967c5.11 0 9.257 4.138 9.257 9.257z" fill="#fb9927"/></g></g></g></g><g><g><g><g><path d="m272.806 504.496h-63.692c-5.113 0-9.257-4.145-9.257-9.257v-16.402c0-5.113 4.145-9.257 9.257-9.257h63.692c5.113 0 9.257 4.145 9.257 9.257v16.402c0 5.113-4.144 9.257-9.257 9.257z" fill="#f98824"/><path d="m282.063 478.838v16.404c0 5.11-4.147 9.257-9.257 9.257h-24.967c5.11 0 9.257-4.147 9.257-9.257v-16.404c0-5.119-4.147-9.257-9.257-9.257h24.967c5.11 0 9.257 4.138 9.257 9.257z" fill="#f2671f"/></g></g></g><g><g><g><path d="m265.178 434.654h-63.692c-5.113 0-9.257-4.145-9.257-9.257v-16.402c0-5.113 4.145-9.257 9.257-9.257h63.692c5.113 0 9.257 4.145 9.257 9.257v16.402c.001 5.112-4.144 9.257-9.257 9.257z" fill="#f98824"/><path d="m274.436 408.996v16.404c0 5.11-4.147 9.257-9.257 9.257h-24.967c5.11 0 9.257-4.147 9.257-9.257v-16.404c0-5.119-4.147-9.257-9.257-9.257h24.967c5.109 0 9.257 4.138 9.257 9.257z" fill="#f2671f"/></g></g></g><g><g><g><path d="m254.261 469.575h-63.692c-5.113 0-9.257-4.145-9.257-9.257v-16.402c0-5.113 4.145-9.257 9.257-9.257h63.692c5.113 0 9.257 4.145 9.257 9.257v16.402c0 5.112-4.144 9.257-9.257 9.257z" fill="#fcb44d"/><path d="m263.518 443.917v16.404c0 5.11-4.147 9.257-9.257 9.257h-24.967c5.11 0 9.257-4.147 9.257-9.257v-16.404c0-5.119-4.147-9.257-9.257-9.257h24.967c5.11 0 9.257 4.138 9.257 9.257z" fill="#fb9927"/></g></g></g><g><g><g><path d="m274.261 399.738h-63.692c-5.113 0-9.257-4.145-9.257-9.257v-16.402c0-5.113 4.145-9.257 9.257-9.257h63.692c5.113 0 9.257 4.145 9.257 9.257v16.402c0 5.112-4.144 9.257-9.257 9.257z" fill="#fcb44d"/><path d="m283.518 374.08v16.404c0 5.11-4.147 9.257-9.257 9.257h-24.967c5.11 0 9.257-4.147 9.257-9.257v-16.404c0-5.119-4.147-9.257-9.257-9.257h24.967c5.11 0 9.257 4.138 9.257 9.257z" fill="#fb9927"/></g></g></g><g><g><g><path d="m245.178 364.817h-63.692c-5.113 0-9.257-4.145-9.257-9.257v-16.402c0-5.113 4.145-9.257 9.257-9.257h63.692c5.113 0 9.257 4.145 9.257 9.257v16.402c.001 5.112-4.144 9.257-9.257 9.257z" fill="#f98824"/><path d="m254.436 339.159v16.404c0 5.11-4.147 9.257-9.257 9.257h-24.967c5.11 0 9.257-4.147 9.257-9.257v-16.404c0-5.119-4.147-9.257-9.257-9.257h24.967c5.109-.001 9.257 4.137 9.257 9.257z" fill="#f2671f"/></g></g></g><g><g><g><path d="m254.261 329.901h-63.692c-5.113 0-9.257-4.145-9.257-9.257v-16.402c0-5.113 4.145-9.257 9.257-9.257h63.692c5.113 0 9.257 4.145 9.257 9.257v16.402c0 5.112-4.144 9.257-9.257 9.257z" fill="#fcb44d"/><path d="m263.518 304.243v16.404c0 5.11-4.147 9.257-9.257 9.257h-24.967c5.11 0 9.257-4.147 9.257-9.257v-16.404c0-5.119-4.147-9.257-9.257-9.257h24.967c5.11-.001 9.257 4.137 9.257 9.257z" fill="#fb9927"/></g></g></g></g><g><g><g><g><path d="m426.47 504.496h-63.692c-5.113 0-9.257-4.145-9.257-9.257v-16.402c0-5.113 4.145-9.257 9.257-9.257h63.692c5.113 0 9.257 4.145 9.257 9.257v16.402c0 5.113-4.144 9.257-9.257 9.257z" fill="#f98824"/><path d="m435.727 478.838v16.404c0 5.11-4.147 9.257-9.257 9.257h-24.967c5.11 0 9.257-4.147 9.257-9.257v-16.404c0-5.119-4.147-9.257-9.257-9.257h24.967c5.11 0 9.257 4.138 9.257 9.257z" fill="#f2671f"/></g></g></g><g><g><g><path d="m407.925 434.654h-63.692c-5.113 0-9.257-4.145-9.257-9.257v-16.402c0-5.113 4.145-9.257 9.257-9.257h63.692c5.113 0 9.257 4.145 9.257 9.257v16.402c.001 5.112-4.144 9.257-9.257 9.257z" fill="#f98824"/><path d="m417.182 408.996v16.404c0 5.11-4.147 9.257-9.257 9.257h-24.967c5.11 0 9.257-4.147 9.257-9.257v-16.404c0-5.119-4.147-9.257-9.257-9.257h24.967c5.11 0 9.257 4.138 9.257 9.257z" fill="#f2671f"/></g></g></g><g><g><g><path d="m407.925 469.575h-63.692c-5.113 0-9.257-4.145-9.257-9.257v-16.402c0-5.113 4.145-9.257 9.257-9.257h63.692c5.113 0 9.257 4.145 9.257 9.257v16.402c.001 5.112-4.144 9.257-9.257 9.257z" fill="#fcb44d"/><path d="m417.182 443.917v16.404c0 5.11-4.147 9.257-9.257 9.257h-24.967c5.11 0 9.257-4.147 9.257-9.257v-16.404c0-5.119-4.147-9.257-9.257-9.257h24.967c5.11 0 9.257 4.138 9.257 9.257z" fill="#fb9927"/></g></g></g><g><g><g><path d="m407.925 399.738h-63.692c-5.113 0-9.257-4.145-9.257-9.257v-16.402c0-5.113 4.145-9.257 9.257-9.257h63.692c5.113 0 9.257 4.145 9.257 9.257v16.402c.001 5.112-4.144 9.257-9.257 9.257z" fill="#fcb44d"/><path d="m417.182 374.08v16.404c0 5.11-4.147 9.257-9.257 9.257h-24.967c5.11 0 9.257-4.147 9.257-9.257v-16.404c0-5.119-4.147-9.257-9.257-9.257h24.967c5.11 0 9.257 4.138 9.257 9.257z" fill="#fb9927"/></g></g></g><g><g><g><path d="m418.842 364.817h-63.692c-5.113 0-9.257-4.145-9.257-9.257v-16.402c0-5.113 4.145-9.257 9.257-9.257h63.692c5.113 0 9.257 4.145 9.257 9.257v16.402c.001 5.112-4.144 9.257-9.257 9.257z" fill="#f98824"/><path d="m428.1 339.159v16.404c0 5.11-4.147 9.257-9.257 9.257h-24.967c5.11 0 9.257-4.147 9.257-9.257v-16.404c0-5.119-4.147-9.257-9.257-9.257h24.967c5.11-.001 9.257 4.137 9.257 9.257z" fill="#f2671f"/></g></g></g><g><g><g><path d="m431.925 329.901h-63.692c-5.113 0-9.257-4.145-9.257-9.257v-16.402c0-5.113 4.145-9.257 9.257-9.257h63.692c5.113 0 9.257 4.145 9.257 9.257v16.402c.001 5.112-4.144 9.257-9.257 9.257z" fill="#fcb44d"/><path d="m441.182 304.243v16.404c0 5.11-4.147 9.257-9.257 9.257h-24.967c5.11 0 9.257-4.147 9.257-9.257v-16.404c0-5.119-4.147-9.257-9.257-9.257h24.967c5.11-.001 9.257 4.137 9.257 9.257z" fill="#fb9927"/></g></g></g><g><g><g><path d="m414.842 294.98h-63.692c-5.113 0-9.257-4.145-9.257-9.257v-16.403c0-5.113 4.145-9.257 9.257-9.257h63.692c5.113 0 9.257 4.145 9.257 9.257v16.402c.001 5.113-4.144 9.258-9.257 9.258z" fill="#f98824"/><path d="m424.1 269.322v16.404c0 5.11-4.147 9.257-9.257 9.257h-24.967c5.11 0 9.257-4.147 9.257-9.257v-16.404c0-5.119-4.147-9.257-9.257-9.257h24.967c5.11-.001 9.257 4.137 9.257 9.257z" fill="#f2671f"/></g></g></g><g><g><g><path d="m423.053 225.144h-63.692c-5.113 0-9.257-4.145-9.257-9.257v-16.402c0-5.113 4.145-9.257 9.257-9.257h63.692c5.113 0 9.257 4.145 9.257 9.257v16.402c.001 5.113-4.144 9.257-9.257 9.257z" fill="#f98824"/><path d="m432.311 199.486v16.404c0 5.11-4.147 9.257-9.257 9.257h-24.967c5.11 0 9.257-4.147 9.257-9.257v-16.404c0-5.119-4.147-9.257-9.257-9.257h24.967c5.109 0 9.257 4.138 9.257 9.257z" fill="#f2671f"/></g></g></g><g><g><g><path d="m427.925 260.064h-63.692c-5.113 0-9.257-4.145-9.257-9.257v-16.402c0-5.113 4.145-9.257 9.257-9.257h63.692c5.113 0 9.257 4.145 9.257 9.257v16.402c.001 5.112-4.144 9.257-9.257 9.257z" fill="#fcb44d"/><path d="m437.182 234.406v16.404c0 5.11-4.147 9.257-9.257 9.257h-24.967c5.11 0 9.257-4.147 9.257-9.257v-16.404c0-5.119-4.147-9.257-9.257-9.257h24.967c5.11-.001 9.257 4.137 9.257 9.257z" fill="#fb9927"/></g></g></g></g></g><g><g><g><circle cx="130.331" cy="101.45" fill="#23f1a8" r="63.571"/><path d="m193.902 101.452c0 35.109-28.464 63.573-63.573 63.573-6.645 0-13.057-1.016-19.078-2.91 32.199-1.524 57.828-28.094 57.828-60.663 0-32.559-25.618-59.129-57.796-60.674 6.021-1.883 12.412-2.899 19.047-2.899 35.108 0 63.572 28.464 63.572 63.573z" fill="#26d192"/></g></g><g><path d="m355.949 127.786-106.475 115.455-50.788-28.878c-2.765-1.572-6.215-1.229-8.617.85l-57.796 50.054c-3.131 2.712-3.471 7.449-.76 10.58 1.483 1.713 3.572 2.59 5.673 2.59 1.74 0 3.488-.603 4.907-1.83l53.788-46.583 51.359 29.202c3.033 1.726 6.855 1.131 9.221-1.435l107.039-116.065 39.292 15.404c3.015 1.184 6.448.296 8.513-2.197l69.654-84.075c2.643-3.19 2.199-7.918-.99-10.561-3.192-2.643-7.919-2.199-10.561.99l-66.192 79.897-39.016-15.295c-2.879-1.128-6.155-.375-8.251 1.897z"/><path d="m504.5 497h-61.367c.061-.579.094-1.166.094-1.761v-16.403c0-9.24-7.518-16.757-16.758-16.757h-1.882c.061-.579.094-1.167.094-1.762v-16.402c0-3.422-1.035-6.604-2.803-9.259 1.768-2.655 2.803-5.837 2.803-9.259v-16.402c0-3.421-1.035-6.602-2.801-9.257 1.766-2.655 2.801-5.836 2.801-9.257v-16.402c0-.936-.096-1.848-.245-2.743 6.493-2.31 11.162-8.5 11.162-15.776v-16.402c0-.725-.062-1.435-.152-2.136 7.553-1.623 13.235-8.346 13.235-16.377v-16.402c0-9.24-7.518-16.758-16.758-16.758h-.42c.061-.579.094-1.167.094-1.762v-16.402c0-.725-.062-1.435-.152-2.136 7.553-1.624 13.235-8.347 13.235-16.378v-16.402c0-5.106-2.302-9.677-5.915-12.753.662-1.8 1.043-3.736 1.043-5.763v-16.402c0-9.24-7.517-16.758-16.757-16.758h-17.409c-4.143 0-7.5 3.357-7.5 7.5s3.357 7.5 7.5 7.5h17.409c.969 0 1.757.788 1.757 1.758v16.402c0 .97-.788 1.758-1.757 1.758-.013 0-.026.002-.039.002l-63.654-.002c-.969 0-1.757-.788-1.757-1.758v-16.402c0-.97.788-1.758 1.757-1.758h12.959c4.143 0 7.5-3.357 7.5-7.5s-3.357-7.5-7.5-7.5h-12.959c-9.24 0-16.757 7.518-16.757 16.758v16.402c0 5.105 2.302 9.677 5.914 12.754-.663 1.8-1.043 3.736-1.043 5.763v16.402c0 .725.062 1.435.152 2.137-7.552 1.624-13.234 8.346-13.234 16.377v16.402c0 9.24 7.518 16.758 16.757 16.758h.42c-.061.579-.094 1.167-.094 1.762v16.402c0 .725.062 1.435.152 2.136-7.552 1.624-13.234 8.347-13.234 16.378v16.402c0 .936.096 1.848.244 2.742-6.493 2.311-11.162 8.501-11.162 15.777v16.402c0 3.421 1.035 6.602 2.801 9.257-1.766 2.655-2.801 5.836-2.801 9.257v16.402c0 3.422 1.035 6.604 2.803 9.259-1.768 2.655-2.803 5.837-2.803 9.259v16.402c0 9.24 7.518 16.758 16.758 16.758h1.881c-.061.579-.094 1.166-.094 1.761v16.403c0 .595.033 1.182.094 1.761h-56.646c.061-.579.094-1.166.094-1.761v-16.403c0-9.24-7.518-16.757-16.758-16.757h-1.882c.061-.579.094-1.167.094-1.762v-16.402c0-.936-.096-1.848-.245-2.742 6.492-2.311 11.161-8.501 11.161-15.776v-16.402c0-1.186-.128-2.342-.363-3.458 5.582-2.722 9.446-8.438 9.446-15.055v-16.402c0-9.24-7.518-16.758-16.758-16.758h-12.419c.061-.579.094-1.166.094-1.761v-16.402c0-1.186-.128-2.342-.363-3.459 5.582-2.722 9.446-8.438 9.446-15.054v-16.402c0-9.24-7.518-16.758-16.758-16.758h-63.691c-9.24 0-16.758 7.518-16.758 16.758v16.402c0 1.186.128 2.342.363 3.459-5.581 2.722-9.445 8.438-9.445 15.055v16.402c0 9.24 7.518 16.757 16.757 16.757h12.42c-.061.579-.094 1.167-.094 1.762v16.402c0 1.186.128 2.342.363 3.458-5.581 2.722-9.445 8.439-9.445 15.055v16.402c0 .936.096 1.848.245 2.743-6.493 2.31-11.163 8.5-11.163 15.776v16.402c0 9.24 7.518 16.758 16.758 16.758h1.881c-.061.579-.094 1.166-.094 1.761v16.403c0 .595.033 1.182.094 1.761h-57.666c.061-.579.094-1.166.094-1.761v-16.403c0-.766-.07-1.515-.17-2.254 7.329-1.788 12.793-8.392 12.793-16.264v-16.402c0-6.617-3.865-12.333-9.447-15.055.236-1.118.364-2.276.364-3.464v-16.402c0-9.24-7.518-16.758-16.757-16.758h-63.687c-9.24 0-16.757 7.518-16.757 16.758v16.402c0 6.617 3.865 12.333 9.446 15.056-.236 1.118-.364 2.275-.364 3.463v16.402c0 .767.07 1.516.17 2.255-7.329 1.788-12.792 8.391-12.792 16.263v16.403c0 .595.034 1.182.094 1.761h-22.767v-110.329l102.059-88.388c3.131-2.711 3.471-7.448.759-10.579-2.711-3.133-7.448-3.471-10.579-.759l-92.239 79.883v-113.808h10.416c4.143 0 7.5-3.357 7.5-7.5s-3.357-7.5-7.5-7.5h-10.416v-53.517h10.416c4.143 0 7.5-3.357 7.5-7.5s-3.357-7.5-7.5-7.5h-10.416v-53.516h10.416c4.143 0 7.5-3.357 7.5-7.5s-3.357-7.5-7.5-7.5h-10.416v-53.515h10.416c4.143 0 7.5-3.357 7.5-7.5s-3.357-7.5-7.5-7.5h-10.416v-24.976c0-4.143-3.357-7.5-7.5-7.5s-7.5 3.357-7.5 7.5v497c0 4.143 3.357 7.5 7.5 7.5h497c4.143 0 7.5-3.357 7.5-7.5s-3.357-7.5-7.5-7.5zm-160.189-69.842c-.026 0-.051-.004-.077-.004-.97 0-1.758-.788-1.758-1.758v-16.402c0-.965.781-1.749 1.745-1.757.004 0 .009.001.013.001h63.691c.004 0 .009-.001.013-.001.964.007 1.745.791 1.745 1.757v16.402c0 .97-.788 1.758-1.758 1.758-.026 0-.051.004-.077.004zm-1.835-36.678v-16.402c0-.97.788-1.758 1.758-1.758l63.614-.004c.026 0 .051.004.077.004.97 0 1.758.788 1.758 1.758v16.402c0 .965-.781 1.749-1.745 1.757-.004 0-.009-.001-.013-.001-.013 0-.026.002-.039.002h-63.614c-.013 0-.026-.002-.039-.002-.004 0-.009.001-.013.001-.963-.007-1.744-.791-1.744-1.757zm76.376-53.08c.964.005 1.747.79 1.747 1.757v16.402c0 .969-.788 1.757-1.757 1.757h-63.692c-.969 0-1.757-.788-1.757-1.757v-16.402c0-.97.788-1.758 1.757-1.758zm-54.599-84.837c-.006 0-.013-.001-.019-.001h-.01c-.965-.005-1.748-.79-1.748-1.757v-16.402c0-.969.788-1.757 1.758-1.757h63.691c.97 0 1.758.788 1.758 1.757v16.402c0 .97-.788 1.758-1.758 1.758zm-14.859 33.159v-16.402c0-.969.788-1.757 1.757-1.757l63.702.001c.964.005 1.747.79 1.747 1.756v16.402c0 .97-.788 1.758-1.757 1.758h-63.693c-.968-.001-1.756-.789-1.756-1.758zm82.531 16.761c.97 0 1.758.788 1.758 1.758v16.402c0 .969-.788 1.757-1.758 1.757h-63.672c-.006 0-.013-.001-.019-.001h-.01c-.965-.005-1.748-.79-1.748-1.756v-16.402c0-.97.788-1.758 1.758-1.758.026 0 .051-.004.077-.004zm-89.449 157.834v-16.402c0-.969.788-1.757 1.758-1.757h63.691c.97 0 1.758.788 1.758 1.757v16.402c0 .97-.788 1.758-1.758 1.758h-63.691c-.97 0-1.758-.788-1.758-1.758zm20.302 36.679c-.97 0-1.758-.788-1.758-1.757v-16.403c0-.969.788-1.757 1.758-1.757.026 0 .051-.004.077-.004l63.614.004c.97 0 1.758.788 1.758 1.757v16.403c0 .969-.788 1.757-1.758 1.757-.026 0-.051.004-.077.004h-63.537c-.025 0-.051-.004-.077-.004zm-173.966-192.755c0-.97.788-1.758 1.758-1.758h63.691c.97 0 1.758.788 1.758 1.758v16.402c0 .969-.788 1.757-1.758 1.757h-63.672c-.006 0-.013-.001-.019-.001h-.01c-.965-.005-1.748-.79-1.748-1.756zm-9.083 51.319v-16.402c0-.97.788-1.758 1.757-1.758l63.702.001c.964.005 1.747.79 1.747 1.757v16.402c0 .969-.788 1.757-1.757 1.757h-63.692c-.968-.001-1.757-.789-1.757-1.757zm94.532 16.76c.97 0 1.758.788 1.758 1.758v16.402c0 .97-.788 1.758-1.758 1.758h-21.932c-4.143 0-7.5 3.357-7.5 7.5s3.357 7.5 7.5 7.5h12.869c.96.011 1.738.793 1.738 1.756v16.402c0 .97-.788 1.758-1.757 1.758l-63.615.004c-.026 0-.051-.004-.077-.004-.969 0-1.757-.788-1.757-1.758v-16.402c0-.97.788-1.758 1.757-1.758l17.519.002c4.143 0 7.5-3.357 7.5-7.5s-3.357-7.5-7.5-7.5h-8.397c-.013 0-.026-.002-.039-.002h-.019c-.961-.011-1.739-.793-1.739-1.756v-16.402c0-.97.788-1.758 1.758-1.758.026 0 .051-.004.077-.004zm-85.449 87.997v-16.402c0-.969.788-1.757 1.758-1.757h63.691c.97 0 1.758.788 1.758 1.757v16.402c0 .97-.788 1.758-1.758 1.758h-63.691c-.97 0-1.758-.788-1.758-1.758zm20.302 36.679c-.97 0-1.758-.788-1.758-1.757v-16.403c0-.969.788-1.757 1.758-1.757.026 0 .051-.004.077-.004l63.614.004c.97 0 1.758.788 1.758 1.757v16.403c0 .969-.788 1.757-1.758 1.757-.026 0-.051.004-.077.004h-63.537c-.025 0-.051-.004-.077-.004zm-142.061-34.921c-.97 0-1.758-.788-1.758-1.758v-16.402c0-.969.788-1.757 1.758-1.757h63.691c.97 0 1.758.788 1.758 1.757v16.402c0 .97-.788 1.758-1.758 1.758zm-10.84-53.081c0-.97.788-1.758 1.757-1.758h63.692c.969 0 1.757.788 1.757 1.758v16.402c0 .97-.788 1.758-1.757 1.758-.026 0-.051.004-.077.004l-63.615-.004c-.969 0-1.757-.788-1.757-1.758zm-1.783 88.002c-.969 0-1.757-.788-1.757-1.757v-16.403c0-.969.788-1.757 1.757-1.757l63.615-.004c.026 0 .051.004.077.004.969 0 1.757.788 1.757 1.757v16.403c0 .969-.788 1.757-1.757 1.757-.026 0-.051.004-.077.004h-63.538c-.026 0-.051-.004-.077-.004z"/><path d="m194.979 178.798c-4.143 0-7.5 3.357-7.5 7.5v7.262c0 4.143 3.357 7.5 7.5 7.5s7.5-3.357 7.5-7.5v-7.262c0-4.143-3.358-7.5-7.5-7.5z"/><path d="m361.464 112.461c4.143 0 7.5-3.357 7.5-7.5v-7.262c0-4.143-3.357-7.5-7.5-7.5s-7.5 3.357-7.5 7.5v7.262c0 4.143 3.357 7.5 7.5 7.5z"/><path d="m126.226 109.49h8.212c3.35 0 6.075 2.726 6.075 6.075 0 3.351-2.726 6.076-6.075 6.076h-8.212c-2.449 0-4.647-1.457-5.602-3.713-1.614-3.815-6.015-5.599-9.829-3.985s-5.6 6.014-3.985 9.829c2.857 6.757 8.942 11.44 16.021 12.588v1.598c0 4.143 3.357 7.5 7.5 7.5s7.5-3.357 7.5-7.5v-1.616c10.01-1.631 17.682-10.314 17.682-20.777 0-11.621-9.454-21.075-21.075-21.075h-8.212c-3.351 0-6.076-2.726-6.076-6.076s2.726-6.076 6.076-6.076h8.212c2.022 0 3.907 1.003 5.042 2.684 2.318 3.433 6.98 4.334 10.413 2.017 3.433-2.318 4.335-6.98 2.017-10.413-3.285-4.863-8.393-8.078-14.078-9.004v-2.68c0-4.143-3.357-7.5-7.5-7.5s-7.5 3.357-7.5 7.5v2.696c-10.009 1.631-17.682 10.314-17.682 20.777-.001 11.62 9.454 21.075 21.076 21.075z"/><path d="m130.331 172.521c39.188 0 71.071-31.883 71.071-71.071s-31.883-71.071-71.071-71.071-71.071 31.883-71.071 71.071 31.883 71.071 71.071 71.071zm0-127.142c30.918 0 56.071 25.153 56.071 56.071s-25.153 56.071-56.071 56.071-56.071-25.153-56.071-56.071 25.153-56.071 56.071-56.071z"/><path d="m233.43 76.919 6.072-6.073 6.073 6.074c1.465 1.464 3.385 2.196 5.304 2.196s3.839-.732 5.304-2.196c2.929-2.93 2.929-7.678 0-10.607l-11.377-11.377c-1.407-1.406-3.314-2.196-5.304-2.196s-3.897.79-5.304 2.197l-11.376 11.377c-2.929 2.929-2.929 7.678.001 10.606 2.928 2.928 7.677 2.929 10.607-.001z"/><path d="m233.43 112.443 6.072-6.073 6.073 6.074c1.465 1.464 3.385 2.196 5.304 2.196s3.839-.732 5.304-2.196c2.929-2.93 2.929-7.678 0-10.607l-11.377-11.377c-1.407-1.406-3.314-2.196-5.304-2.196s-3.897.79-5.304 2.197l-11.376 11.377c-2.929 2.929-2.929 7.678.001 10.606 2.928 2.928 7.677 2.929 10.607-.001z"/><path d="m233.43 147.968 6.072-6.073 6.073 6.074c1.465 1.464 3.385 2.196 5.304 2.196s3.839-.732 5.304-2.196c2.929-2.93 2.929-7.678 0-10.607l-11.377-11.377c-1.407-1.406-3.314-2.196-5.304-2.196s-3.897.79-5.304 2.197l-11.376 11.377c-2.929 2.929-2.929 7.678.001 10.606 2.928 2.927 7.677 2.928 10.607-.001z"/></g></g></g></svg>