<svg id="Capa_1" enable-background="new 0 0 512 512" height="512" viewBox="0 0 512 512" width="512" xmlns="http://www.w3.org/2000/svg"><g><path d="m346 7.5v317c87.537 0 158.5-70.963 158.5-158.5s-70.963-158.5-158.5-158.5z" fill="#a3d1ff"/><path d="m474.5 166c0-87.537-57.531-158.5-128.5-158.5-87.537 0-158.5 70.963-158.5 158.5s70.963 158.5 158.5 158.5c70.969 0 128.5-70.963 128.5-158.5z" fill="#c7e3ff"/><circle cx="196" cy="316" fill="#4367b1" r="188.5"/><path d="m323.15 293.05-125.49 181.44c84.04-.86 152.42-67.13 156.63-150.33z" fill="#c7e3ff"/><path d="m324.5 316c0 86.86-56.63 157.39-126.84 158.49-.55.01-1.1.01-1.66.01-87.54 0-158.5-70.96-158.5-158.5 0-84.76 66.53-153.98 150.21-158.29l135.44 135.34c.89 7.49 1.35 15.15 1.35 22.95z" fill="#e5f2ff"/><path d="m196.042 157.501 128.326 165.524c7.074.966 14.293 1.476 21.632 1.476 2.787 0 5.551-.122 8.293-.338.137-2.703.207-5.425.207-8.162 0-87.524-70.94-158.478-158.458-158.5z" fill="#8ebaff"/><path d="m196.042 157.501c-2.821 0-5.583.073-8.327.214-.141 2.744-.214 5.506-.214 8.286 0 80.198 59.566 146.473 136.868 157.024.082-2.33.132-4.67.132-7.024-.001-87.521-57.51-158.473-128.459-158.5z" fill="#a3d1ff"/><path d="m346 0c-37.792 0-73.396 12.373-102.963 35.782-27.184 21.522-47.137 51.347-56.637 84.456-103.633 5.023-186.4 90.906-186.4 195.762 0 108.075 87.925 196 196 196 104.856 0 190.739-82.767 195.762-186.4 33.109-9.499 62.932-29.452 84.455-56.636 23.41-29.568 35.783-65.172 35.783-102.964 0-91.533-74.467-166-166-166zm-150 497c-99.804 0-181-81.196-181-181s81.196-181 181-181 181 81.196 181 181-81.196 181-181 181zm195.896-187.094c-3.17-103.241-86.561-186.632-189.802-189.802 19.784-62.347 77.646-105.104 143.906-105.104 83.262 0 151 67.738 151 151 0 66.26-42.756 124.122-105.104 143.906z"/><path d="m196 150c-91.532 0-166 74.468-166 166s74.468 166 166 166 166-74.468 166-166-74.468-166-166-166zm0 317c-83.262 0-151-67.738-151-151s67.738-151 151-151 151 67.738 151 151-67.738 151-151 151z"/><path d="m196.415 186.675c-.562-4.104-4.334-6.965-8.448-6.413-4.104.562-6.975 4.344-6.413 8.448 10.048 73.404 68.332 131.688 141.736 141.736.346.047.688.07 1.027.07 3.69 0 6.906-2.726 7.421-6.483.562-4.104-2.31-7.887-6.413-8.448-66.762-9.139-119.771-62.148-128.91-128.91z"/></g></svg>