<svg height="511pt" viewBox="-13 0 511 511.99781" width="511pt" xmlns="http://www.w3.org/2000/svg"><g fill="#f6d190"><path d="m117.164062 191.445312c3.011719-11.246093-3.527343-22.566406-15.203124-26.34375-1.589844-.507812-3.375-.75-5.480469-.75 0 0 0 0-.003907 0-10.066406 0-26.730468 5.714844-31.59375 7.46875-2.617187.941407-4.554687 3.167969-5.128906 5.886719-.574218 2.71875.300782 5.542969 2.3125 7.457031 20.121094 19.167969 26.390625 20.851563 28.753906 21.488282 1.835938.484375 3.691407.726562 5.546876.726562 9.730468-.003906 18.28125-6.554687 20.796874-15.933594zm0 0"/><path d="m163.910156 247.226562c1.824219.484376 3.691406.730469 5.5625.730469 9.71875 0 18.265625-6.554687 20.785156-15.9375.5625-2.109375 2.285157-8.523437-4.238281-35.632812-.652343-2.703125-2.65625-4.875-5.296875-5.742188-.816406-.265625-1.660156-.398437-2.496094-.398437-1.867187 0-3.703124.652344-5.171874 1.890625-10.121094 8.539062-22.5625 20.457031-24.34375 28.75-2.578126 11.996093 3.953124 23.320312 15.199218 26.339843zm0 0"/><path d="m128.589844 185.601562c1.824218.488282 3.691406.730469 5.558594.730469 9.722656 0 18.269531-6.554687 20.789062-15.9375.5625-2.105469 2.285156-8.523437-4.242188-35.632812-.648437-2.699219-2.652343-4.875-5.292968-5.738281-.816406-.269532-1.660156-.398438-2.5-.398438-1.863282 0-3.699219.648438-5.167969 1.886719-10.121094 8.539062-22.5625 20.457031-24.34375 28.75-2.582031 11.996093 3.953125 23.320312 15.199219 26.339843zm0 0"/><path d="m153.011719 253.527344c3.011719-11.25-3.527344-22.574219-15.207031-26.34375-1.621094-.519532-3.441407-.765625-5.589844-.765625-9.742188 0-25.277344 5.234375-31.503906 7.480469-2.613282.945312-4.546876 3.171874-5.121094 5.890624-.570313 2.71875.304687 5.535157 2.3125 7.453126 20.113281 19.167968 26.398437 20.855468 28.761718 21.488281 1.835938.484375 3.695313.726562 5.550782.726562 9.726562.003907 18.28125-6.550781 20.796875-15.929687zm0 0"/><path d="m81.320312 129.359375c3.007813-11.242187-3.527343-22.566406-15.203124-26.339844-1.570313-.503906-3.363282-.753906-5.488282-.753906-10.054687 0-26.71875 5.71875-31.585937 7.472656-2.613281.941407-4.554688 3.167969-5.128907 5.886719-.574218 2.71875.300782 5.539062 2.3125 7.457031 20.101563 19.167969 26.382813 20.851563 28.746094 21.488281 1.84375.484376 3.695313.722657 5.546875.722657 9.730469 0 18.285157-6.550781 20.800781-15.933594zm0 0"/><path d="m92.234375 123.0625c1.820313.480469 3.671875.722656 5.527344.722656 9.738281 0 18.296875-6.550781 20.8125-15.929687.566406-2.105469 2.285156-8.523438-4.238281-35.636719-.652344-2.703125-2.65625-4.875-5.296876-5.742188-.816406-.269531-1.660156-.398437-2.496093-.398437-1.867188 0-3.703125.648437-5.167969 1.886719-10.128906 8.539062-22.574219 20.457031-24.355469 28.757812-2.570312 12.007813 3.972657 23.328125 15.214844 26.339844zm0 0"/><path d="m173.652344 289.269531c-1.617188-.515625-3.4375-.765625-5.582032-.765625-9.765624 0-25.292968 5.230469-31.515624 7.476563-2.613282.945312-4.546876 3.171875-5.121094 5.890625-.570313 2.714844.304687 5.535156 2.3125 7.453125 20.113281 19.167969 26.398437 20.855469 28.761718 21.492187 1.839844.488282 3.710938.734375 5.585938.734375 3.761719 0 7.476562-1 10.742188-2.890625 4.960937-2.863281 8.523437-7.5 10.011718-13.046875 3.007813-11.25-3.523437-22.574219-15.195312-26.34375zm0 0"/><path d="m221.863281 258.464844c-.648437-2.703125-2.65625-4.875-5.296875-5.742188-.816406-.269531-1.660156-.398437-2.496094-.398437-1.867187 0-3.703124.652343-5.171874 1.890625-10.125 8.542968-22.570313 20.46875-24.351563 28.757812-2.570313 12 3.96875 23.320313 15.210937 26.335938 1.835938.488281 3.695313.730468 5.554688.730468 9.734375 0 18.285156-6.558593 20.792969-15.945312.5625-2.101562 2.28125-8.519531-4.242188-35.628906zm0 0"/><path d="m41.351562 77.941406c1.808594.488282 3.6875.738282 5.566407.738282 3.742187 0 7.449219-.996094 10.726562-2.875 4.996094-2.886719 8.554688-7.523438 10.039063-13.074219 1.492187-5.527344.730468-11.328125-2.148438-16.316407-4.414062-7.648437-18.46875-15.917968-29.480468-21.507812-1.144532-.582031-2.386719-.867188-3.628907-.867188-1.386719 0-2.769531.359376-4.007812 1.070313-2.347657 1.355469-3.851563 3.804687-3.996094 6.511719-.667969 12.347656-.535156 28.664062 3.871094 36.296875 2.867187 4.976562 7.507812 8.539062 13.058593 10.023437zm0 0"/><path d="m368.785156 226.515625c-3.011718-11.246094 3.527344-22.570313 15.203125-26.34375 1.589844-.507813 3.375-.75 5.480469-.75 10.070312 0 26.734375 5.714844 31.597656 7.46875 2.617188.9375 4.554688 3.167969 5.128906 5.886719.574219 2.71875-.300781 5.539062-2.3125 7.457031-20.121093 19.167969-26.390624 20.851563-28.753906 21.488281-1.835937.480469-3.691406.722656-5.546875.722656-9.730469 0-18.28125-6.550781-20.796875-15.929687zm0 0"/><path d="m322.039062 282.292969c-1.824218.488281-3.691406.734375-5.5625.734375-9.722656 0-18.269531-6.554688-20.785156-15.9375-.566406-2.109375-2.285156-8.523438 4.238282-35.632813.652343-2.703125 2.65625-4.875 5.296874-5.742187.816407-.265625 1.660157-.398438 2.496094-.398438 1.867188 0 3.703125.652344 5.171875 1.890625 10.121094 8.535157 22.5625 20.453125 24.34375 28.75 2.582031 11.996094-3.953125 23.320313-15.199219 26.335938zm0 0"/><path d="m357.359375 220.671875c-1.824219.484375-3.691406.730469-5.5625.730469-9.71875 0-18.265625-6.554688-20.785156-15.9375-.5625-2.109375-2.285157-8.523438 4.238281-35.632813.652344-2.699219 2.65625-4.875 5.296875-5.738281.816406-.269531 1.660156-.402344 2.496094-.402344 1.867187 0 3.703125.652344 5.171875 1.890625 10.121094 8.539063 22.5625 20.457031 24.34375 28.75 2.582031 11.996094-3.953125 23.320313-15.199219 26.339844zm0 0"/><path d="m332.941406 288.597656c-3.015625-11.25 3.523438-22.574218 15.203125-26.34375 1.621094-.519531 3.441407-.765625 5.589844-.765625 9.742187 0 25.277344 5.234375 31.503906 7.480469 2.613281.945312 4.550781 3.171875 5.121094 5.890625.570313 2.714844-.304687 5.535156-2.3125 7.453125-20.113281 19.167969-26.394531 20.855469-28.761719 21.488281-1.835937.484375-3.695312.726563-5.550781.726563-9.726563.003906-18.277344-6.546875-20.792969-15.929688zm0 0"/><path d="m404.628906 164.429688c-3.007812-11.242188 3.527344-22.5625 15.203125-26.335938 1.570313-.507812 3.363281-.753906 5.488281-.753906 10.054688 0 26.71875 5.714844 31.585938 7.46875 2.613281.941406 4.554688 3.167968 5.128906 5.886718.574219 2.71875-.300781 5.539063-2.3125 7.457032-20.101562 19.167968-26.382812 20.855468-28.746094 21.488281-1.84375.484375-3.695312.722656-5.546874.722656-9.730469 0-18.285157-6.550781-20.800782-15.933593zm0 0"/><path d="m393.714844 158.132812c-1.820313.480469-3.671875.722657-5.527344.722657-9.738281 0-18.300781-6.550781-20.8125-15.929688-.566406-2.109375-2.285156-8.523437 4.238281-35.636719.652344-2.703124 2.652344-4.875 5.296875-5.742187.816406-.269531 1.660156-.402344 2.496094-.402344 1.867188 0 3.703125.652344 5.167969 1.890625 10.128906 8.539063 22.570312 20.457032 24.355469 28.757813 2.570312 12.007812-3.96875 23.328125-15.214844 26.339843zm0 0"/><path d="m312.296875 324.339844c1.617187-.515625 3.4375-.765625 5.582031-.765625 9.765625 0 25.292969 5.230469 31.515625 7.476562 2.613281.945313 4.550781 3.171875 5.121094 5.890625.570313 2.714844-.304687 5.535156-2.3125 7.453125-20.113281 19.167969-26.398437 20.855469-28.761719 21.488281-1.835937.492188-3.710937.738282-5.585937.738282-3.761719 0-7.476563-1-10.742188-2.894532-4.960937-2.859374-8.523437-7.496093-10.007812-13.042968-3.015625-11.25 3.519531-22.574219 15.191406-26.34375zm0 0"/><path d="m264.085938 293.535156c.652343-2.703125 2.65625-4.875 5.296874-5.742187.816407-.269531 1.660157-.398438 2.496094-.398438 1.867188 0 3.703125.652344 5.171875 1.890625 10.125 8.542969 22.570313 20.46875 24.351563 28.753906 2.570312 12.003907-3.96875 23.324219-15.207032 26.339844-1.839843.488282-3.699218.730469-5.558593.730469-9.734375 0-18.285157-6.558594-20.789063-15.945313-.566406-2.101562-2.285156-8.519531 4.238282-35.628906zm0 0"/><path d="m444.597656 113.011719c-1.808594.488281-3.6875.738281-5.566406.738281-3.742188 0-7.449219-.996094-10.726562-2.875-4.996094-2.886719-8.554688-7.527344-10.039063-13.074219-1.492187-5.527343-.734375-11.328125 2.148437-16.316406 4.414063-7.648437 18.46875-15.917969 29.480469-21.507813 1.144531-.582031 2.386719-.867187 3.628907-.867187 1.386718 0 2.769531.355469 4.007812 1.070313 2.347656 1.355468 3.851562 3.804687 3.996094 6.511718.664062 12.347656.535156 28.664063-3.871094 36.296875-2.867188 4.976563-7.507812 8.539063-13.058594 10.023438zm0 0"/></g><path d="m223.078125 399.125c.878906 3.375 3.917969 5.609375 7.25 5.609375.625 0 1.265625-.082031 1.898437-.246094 4.007813-1.046875 6.410157-5.144531 5.363282-9.152343-7.101563-27.210938-17.773438-53.375-31.707032-77.796876 4.851563-.085937 9.628907-1.390624 13.945313-3.882812 6.710937-3.875 11.511719-10.128906 13.515625-17.613281 4.074219-15.203125-8.726562-56.777344-11.335938-64.957031-1.257812-3.945313-5.476562-6.125-9.421874-4.867188-3.945313 1.257812-6.125 5.476562-4.871094 9.425781.867187 2.714844 1.675781 5.351563 2.429687 7.90625-7.164062 5.597657-22.570312 18.394531-29.601562 30.070313l-10.496094-18.179688c12.582031-.253906 24.039063-8.730468 27.453125-21.480468 4.074219-15.203126-8.726562-56.777344-11.335938-64.957032-1.257812-3.945312-5.476562-6.125-9.421874-4.867187-3.945313 1.257812-6.128907 5.476562-4.871094 9.421875.867187 2.714844 1.675781 5.351562 2.429687 7.910156-7.164062 5.59375-22.570312 18.394531-29.601562 30.066406l-10.488281-18.164062c4.84375-.089844 9.617187-1.390625 13.929687-3.878906 6.710937-3.875 11.511719-10.128907 13.515625-17.613282 4.074219-15.203125-8.726562-56.777344-11.335938-64.957031-1.257812-3.945313-5.476562-6.125-9.425781-4.867187-3.945312 1.257812-6.125 5.476562-4.867187 9.421874 9.851562 30.898438 12.445312 51.652344 11.140625 56.519532-.96875 3.613281-3.285157 6.632812-6.523438 8.503906-3.242187 1.871094-7.015625 2.367188-10.628906 1.398438-7.320313-1.960938-11.539063-9.492188-9.816406-17.519532.1875-.875 1.304687-4.273437 7.78125-11.3125 2.804687-3.046875 2.609375-7.792968-.4375-10.597656s-7.792969-2.605469-10.601563.441406c-3.5 3.804688-6.191406 7.285156-8.113281 10.496094l-10.460937-18.117188c4.847656-.089843 9.621093-1.390624 13.933593-3.882812 6.707031-3.875 11.507813-10.128906 13.511719-17.613281 4.074219-15.203125-8.726562-56.773438-11.335938-64.957031-1.257812-3.945313-5.476562-6.125-9.421874-4.867188-3.945313 1.261719-6.125 5.480469-4.871094 9.425781.867187 2.714844 1.675781 5.351563 2.433594 7.90625-7.164063 5.597657-22.574219 18.398438-29.605469 30.070313l-5.59375-9.691406c9.054687-9.054688 11.316406-23.410157 4.613281-35.015626-7.242188-12.546874-32.277344-24.582031-41.363281-28.632812l-5.933594-10.28125c-2.074219-3.585938-6.660156-4.8125-10.246094-2.746094-3.585937 2.074219-4.816406 6.660156-2.746093 10.246094l5.9375 10.28125c-1.035157 9.894531-3.132813 37.589844 4.113281 50.136719 5.367187 9.296875 15.136719 14.5 25.167969 14.5 2.496093 0 5.003906-.328125 7.464843-.988281l5.597657 9.691406c-13.628907.253906-32.417969 7.195312-40.84375 10.601562-1.835938-1.929687-3.714844-3.949218-5.636719-6.058594-2.789063-3.0625-7.53125-3.28125-10.59375-.492187-3.0625 2.789063-3.285157 7.53125-.496094 10.59375.34375.378906 8.574219 9.402344 18.664063 19.03125 19.195312 18.328125 27.410156 22.054687 31.921874 23.261719 2.503907.671875 5.019532.992187 7.5.992187 10.136719 0 19.59375-5.375 24.824219-14.035156l10.5 18.1875c-13.625.253906-32.414062 7.195313-40.84375 10.601563-1.832031-1.929688-3.714843-3.949219-5.632812-6.054688-2.789063-3.066406-7.53125-3.285156-10.59375-.496094-3.0625 2.789063-3.285157 7.53125-.496094 10.59375.34375.378906 8.574219 9.402344 18.664063 19.035156 19.195312 18.324219 27.410156 22.050782 31.921874 23.261719 2.496094.667969 5.035157 1 7.554688 1 5.023438 0 9.984375-1.320312 14.453125-3.898437 4.3125-2.488282 7.832031-5.96875 10.332031-10.117188l10.484375 18.15625c-13.625.253906-32.414062 7.199219-40.84375 10.605469-1.835937-1.933594-3.710937-3.949219-5.632812-6.058594-2.789063-3.0625-7.535157-3.285156-10.59375-.496093-3.0625 2.789062-3.285157 7.53125-.5 10.59375.347656.378906 8.578125 9.402343 18.664062 19.035156 19.195313 18.328125 27.414063 22.054687 31.921875 23.261718 2.5.671876 5.035156 1 7.554688 1 5.027344 0 9.988281-1.316406 14.457031-3.898437 4.3125-2.488281 7.832031-5.964844 10.332031-10.117187l10.484375 18.160156c-13.628906.25-32.414062 7.195312-40.84375 10.601562-1.835937-1.933594-3.714843-3.949218-5.632812-6.058594-2.789063-3.0625-7.535157-3.285156-10.597657-.496093-3.0625 2.789062-3.28125 7.53125-.496093 10.59375.347656.382812 8.578125 9.402343 18.664062 19.035156 19.195313 18.328125 27.414063 22.054687 31.921875 23.261719 2.503906.671875 5.023438.992187 7.5.992187 10.132813 0 19.585938-5.371093 24.820313-14.019531 13.265625 23.261719 23.425781 48.179688 30.191406 74.09375zm-67.035156-176.664062c1.105469-5.160157 11.476562-15.917969 22.539062-25.167969 4.296875 17.671875 5.363281 29.304687 4.429688 32.785156-2 7.457031-9.691407 11.902344-17.152344 9.902344-7.320313-1.960938-11.539063-9.492188-9.816406-17.519531zm-71.6875-124.164063c1.109375-5.160156 11.476562-15.917969 22.539062-25.171875 4.296875 17.671875 5.363281 29.304688 4.429688 32.789062-.96875 3.613282-3.285157 6.632813-6.523438 8.503907-3.242187 1.871093-7.015625 2.367187-10.628906 1.398437-7.320313-1.960937-11.539063-9.492187-9.816406-17.519531zm-10.28125 29.121094c-1.996094 7.460937-9.695313 11.902343-17.152344 9.90625-3.484375-.9375-13.03125-7.679688-26.199219-20.25 15.929688-5.875 29.03125-8.226563 33.085938-6.917969 7.816406 2.523438 12.230468 9.945312 10.265625 17.261719zm35.84375 62.082031c-.964844 3.613281-3.285157 6.636719-6.523438 8.507812-3.238281 1.871094-7.015625 2.363282-10.628906 1.398438-3.484375-.933594-13.03125-7.679688-26.199219-20.253906 15.917969-5.878906 29.019532-8.226563 33.085938-6.914063 7.8125 2.523438 12.226562 9.945313 10.265625 17.261719zm35.84375 62.082031c-.96875 3.617188-3.285157 6.636719-6.523438 8.507813-3.242187 1.871094-7.015625 2.367187-10.628906 1.398437-3.484375-.933593-13.03125-7.679687-26.199219-20.25 15.917969-5.878906 29.015625-8.226562 33.085938-6.914062 7.8125 2.519531 12.226562 9.941406 10.265625 17.257812zm46.125 32.960938c1.105469-5.160157 11.476562-15.917969 22.539062-25.167969 4.296875 17.671875 5.363281 29.300781 4.429688 32.785156-.96875 3.613282-3.285157 6.632813-6.527344 8.503906-3.238281 1.871094-7.015625 2.367188-10.625 1.398438-7.320313-1.957031-11.539063-9.492188-9.816406-17.519531zm-157.105469-220.375c-3.148438-5.453125-3.566406-20.171875-2.832031-32.925781 11.40625 5.734374 23.9375 13.457031 27.09375 18.921874 3.859375 6.6875 1.5625 15.269532-5.128907 19.132813-6.683593 3.859375-15.269531 1.5625-19.132812-5.128906zm146.824219 249.5c-2 7.457031-9.695313 11.902343-17.152344 9.902343-3.484375-.933593-13.03125-7.679687-26.203125-20.25 15.921875-5.878906 29.023438-8.230468 33.089844-6.914062 7.8125 2.519531 12.226562 9.941406 10.265625 17.261719zm0 0"/><path d="m482.140625 134.386719c-3.066406-2.789063-7.808594-2.566407-10.597656.496093-1.917969 2.109376-3.796875 4.125-5.632813 6.058594-8.425781-3.40625-27.214844-10.347656-40.839844-10.601562l5.59375-9.691406c2.460938.660156 4.96875.984374 7.464844.984374 10.03125 0 19.800782-5.203124 25.167969-14.496093 7.242187-12.546875 5.148437-40.242188 4.113281-50.136719l5.9375-10.28125c2.070313-3.589844.839844-8.175781-2.746094-10.246094-3.585937-2.070312-8.171874-.84375-10.246093 2.746094l-5.933594 10.28125c-9.089844 4.050781-34.121094 16.082031-41.363281 28.628906-6.703125 11.609375-4.4375 25.964844 4.617187 35.019532l-5.597656 9.691406c-7.03125-11.675782-22.441406-24.476563-29.605469-30.074219.757813-2.554687 1.566406-5.1875 2.433594-7.90625 1.253906-3.945313-.925781-8.164063-4.871094-9.421875-3.945312-1.257812-8.164062.921875-9.421875 4.867188-.15625.488281-3.855469 12.128906-7.152343 25.679687-6.277344 25.789063-5.394532 34.765625-4.1875 39.277344 2.007812 7.484375 6.804687 13.738281 13.515624 17.613281 4.316407 2.488281 9.085938 3.792969 13.933594 3.878906l-10.488281 18.167969c-7.03125-11.675781-22.441406-24.476563-29.605469-30.070313.757813-2.558593 1.566406-5.191406 2.429688-7.910156 1.257812-3.945312-.921875-8.164062-4.867188-9.421875-3.945312-1.257812-8.164062.921875-9.425781 4.867188-.152344.488281-3.851563 12.128906-7.148437 25.679687-6.277344 25.789063-5.394532 34.769532-4.1875 39.277344 2.003906 7.484375 6.804687 13.738281 13.515624 17.613281 4.316407 2.492188 9.085938 3.792969 13.933594 3.882813l-10.460937 18.121094c-1.5-2.507813-3.460938-5.175782-5.925781-8.042969-2.699219-3.140625-7.4375-3.5-10.578126-.796875-3.140624 2.699218-3.496093 7.4375-.796874 10.574218 4.878906 5.675782 5.769531 8.5 5.929687 9.230469 1.722656 8.027344-2.5 15.5625-9.816406 17.519531-7.460938 2-15.15625-2.441406-17.152344-9.902343-1.304687-4.863281 1.289063-25.613281 11.136719-56.519531 1.257812-3.945313-.921875-8.164063-4.867188-9.421876-3.949218-1.257812-8.164062.921876-9.421875 4.867188-.15625.488281-3.855469 12.128906-7.152343 25.679688-6.273438 25.789062-5.394532 34.765624-4.1875 39.277343 3.417968 12.75 14.875 21.226563 27.457031 21.476563l-10.496094 18.183594c-7.03125-11.675782-22.441406-24.476563-29.605469-30.070313.757813-2.558594 1.566406-5.191406 2.429688-7.910156 1.257812-3.945313-.921875-8.164063-4.867188-9.421875-3.945312-1.257813-8.164062.921875-9.421875 4.867187-.15625.488281-3.855469 12.128907-7.152343 25.679688-6.273438 25.789062-5.394532 34.765625-4.1875 39.277343 2.007812 7.484376 6.804687 13.738282 13.515624 17.613282 4.316407 2.488281 9.085938 3.792968 13.933594 3.878906l-85.300781 147.746094c-2.070313 3.585937-.84375 8.175781 2.746094 10.246094 1.179687.679687 2.46875 1.003906 3.742187 1.003906 2.589844 0 5.113282-1.34375 6.5-3.75l25.820313-44.71875c.175781 4.226562.265625 8.445312.265625 12.652344v28.316406c0 4.144531 3.359375 7.5 7.5 7.5s7.5-3.355469 7.5-7.5v-28.316406c0-11.859376-.675782-23.84375-1.996094-35.636719l46.210938-80.035157c2.5 4.152344 6.015624 7.628907 10.328124 10.117188 4.472657 2.582031 9.429688 3.898438 14.457032 3.898438 2.519531 0 5.054687-.332032 7.554687-1 15.203125-4.074219 44.804688-35.949219 50.585938-42.296876 2.785156-3.0625 2.566406-7.804687-.5-10.59375-3.058594-2.789062-7.804688-2.566406-10.59375.496094-1.917969 2.109375-3.796875 4.125-5.632813 6.058594-8.425781-3.40625-27.214844-10.347656-40.839844-10.601562l10.484376-18.160157c2.5 4.152344 6.015624 7.628907 10.328124 10.117188 4.46875 2.582031 9.429688 3.898437 14.457032 3.898437 2.519531 0 5.054687-.332031 7.554687-1 15.203125-4.074218 44.804688-35.949218 50.585938-42.296875 2.789062-3.0625 2.566406-7.804687-.496094-10.59375-3.066406-2.789062-7.808594-2.566406-10.597656.496094-1.917969 2.109375-3.796875 4.125-5.628907 6.058594-8.429687-3.40625-27.21875-10.347657-40.84375-10.601563l10.496094-18.183594c5.230469 8.65625 14.6875 14.03125 24.828125 14.03125 2.476563 0 4.996094-.320312 7.5-.992187 15.203125-4.074219 44.804688-35.949219 50.585938-42.296875 2.785156-3.0625 2.5625-7.804688-.5-10.59375s-7.804688-2.566406-10.59375.496094c-1.917969 2.109375-3.796875 4.128906-5.632813 6.058594-8.425781-3.40625-27.214844-10.347657-40.839844-10.601563l10.484376-18.160156c2.5 4.152343 6.015624 7.628906 10.328124 10.117187 4.46875 2.582032 9.429688 3.898438 14.457032 3.898438 2.515625 0 5.054687-.332032 7.550781-1 15.203125-4.074219 44.808594-35.945313 50.585937-42.296875 2.792969-3.0625 2.570313-7.804688-.492187-10.59375zm-108.375 6.992187c-.933594-3.484375.132813-15.125 4.433594-32.8125 13.054687 10.855469 21.640625 21.027344 22.535156 25.195313 1.722656 8.027343-2.5 15.5625-9.816406 17.523437-3.613281.964844-7.386719.46875-10.625-1.402344-3.242188-1.871093-5.5625-4.890624-6.527344-8.503906zm-35.84375 62.082032c-.933594-3.484376.132813-15.125 4.4375-32.8125 13.050781 10.855468 21.636719 21.023437 22.53125 25.195312 1.722656 8.027344-2.496094 15.558594-9.816406 17.519531-3.613281.96875-7.386719.472657-10.625-1.398437-3.242188-1.867188-5.558594-4.890625-6.527344-8.503906zm-71.6875 124.164062c-.933594-3.484375.132813-15.125 4.4375-32.8125 13.050781 10.855469 21.636719 21.027344 22.53125 25.195312 1.722656 8.027344-2.496094 15.5625-9.8125 17.523438-3.617187.964844-7.390625.46875-10.628906-1.402344-3.242188-1.867187-5.558594-4.886718-6.527344-8.503906zm80.582031 11.183594c-13.15625 12.554687-22.695312 19.292968-26.179687 20.226562-7.460938 2-15.152344-2.441406-17.152344-9.902344-1.960937-7.316406 2.453125-14.738281 10.265625-17.261718.828125-.265625 1.917969-.390625 3.21875-.390625 6.570312 0 18.542969 3.191406 29.847656 7.328125zm35.847656-62.082032c-13.15625 12.554688-22.695312 19.292969-26.183593 20.226563-3.613281.96875-7.386719.472656-10.628907-1.398437-3.238281-1.871094-5.554687-4.890626-6.523437-8.503907-1.960937-7.316406 2.453125-14.738281 10.265625-17.261719.832031-.265624 1.917969-.390624 3.21875-.390624 6.570312-.003907 18.542969 3.191406 29.851562 7.328124zm35.84375-62.082031c-13.15625 12.554688-22.695312 19.292969-26.183593 20.226563-7.460938 1.996094-15.15625-2.441406-17.152344-9.902344-1.960937-7.320312 2.449219-14.738281 10.265625-17.261719.828125-.269531 1.917969-.394531 3.21875-.394531 6.570312 0 18.542969 3.195312 29.851562 7.332031zm7.539063-129.015625c3.148437-5.453125 15.683594-13.175781 27.09375-18.914062.734375 12.75.3125 27.464844-2.832031 32.921875-3.859375 6.683593-12.4375 8.984375-19.121094 5.132812-.003906-.003906-.007812-.003906-.011719-.007812-.003906 0-.007812-.003907-.011719-.003907-6.679687-3.867187-8.976562-12.445312-5.117187-19.128906zm2.121094 87.160156c-7.457031 2-15.15625-2.445312-17.152344-9.902343-1.960937-7.320313 2.449219-14.742188 10.265625-17.261719.828125-.269531 1.917969-.394531 3.21875-.394531 6.566406 0 18.542969 3.191406 29.847656 7.328125-13.15625 12.558594-22.699218 19.296875-26.179687 20.230468zm0 0"/></svg>